<svg width="208" height="180" viewBox="0 0 208 180" fill="none" xmlns="http://www.w3.org/2000/svg">
<path opacity="0.08" d="M111.5 180C161.206 180 201.5 139.706 201.5 90C201.5 40.2944 161.206 0 111.5 0C61.7944 0 21.5 40.2944 21.5 90C21.5 139.706 61.7944 180 111.5 180Z" fill="#E03C31"/>
<path d="M46.3479 141.343L46.1716 141.194C45.8395 140.922 45.4938 140.609 45.1075 140.256L44.7144 139.896L45.2363 140.011C45.643 140.099 46.0564 140.167 46.4631 140.215L46.6258 140.235L46.3479 141.343ZM45.6904 140.399C45.8599 140.555 46.0225 140.698 46.1852 140.834L46.2733 140.494C46.0768 140.46 45.887 140.433 45.6904 140.399Z" fill="url(#paint0_linear_908_7836)"/>
<path d="M159.516 103.71C159.516 145.295 125.9 179 84.4394 179C42.9725 179 7.5 143.814 7.5 102.236C7.5 60.6519 42.9725 28.4141 84.4394 28.4141C125.9 28.4209 159.516 62.1327 159.516 103.71Z" fill="#ACE0F0"/>
<path d="M149.301 103.711C149.301 139.705 120.202 168.886 84.3098 168.886C48.4173 168.886 17.7134 138.434 17.7134 102.44C17.7134 66.4461 48.4173 38.542 84.3098 38.542C120.202 38.542 149.301 67.7164 149.301 103.711Z" fill="#CBECF6"/>
<path d="M149.304 103.71C149.304 67.7153 120.205 38.5342 84.3129 38.5342C64.88 38.5342 46.9642 46.7193 34.623 59.9378L84.6855 101.712L94.9743 168.002C125.793 162.9 149.304 136.063 149.304 103.71Z" fill="#CBECF6"/>
<path d="M140.454 99.1806C140.454 131.663 113.652 157.998 80.5837 157.998C47.5158 157.998 19.23 130.515 19.23 98.0259C19.23 65.5435 47.5158 40.3564 80.5837 40.3564C113.645 40.3632 140.454 66.6983 140.454 99.1806Z" fill="#DFF6FD"/>
<path d="M82.3788 105.191L114.641 104.139C115.359 104.125 115.826 104.886 115.494 105.524L113.537 109.308C113.157 110.041 113.835 110.884 114.634 110.653L145.25 102.013C146.184 101.748 146.164 100.409 145.216 100.178L114.661 92.7745C113.929 92.5979 113.293 93.3043 113.55 94.0176L115.257 98.786C115.467 99.377 115.061 100.002 114.437 100.049L82.2975 103.296C81.7827 103.337 81.3966 103.779 81.4237 104.288C81.4508 104.797 81.8708 105.198 82.3788 105.191Z" fill="white"/>
<path d="M80.6614 101.789L63.1994 69.1981C62.8608 68.5663 63.3146 67.7988 64.0326 67.7988H68.2863C69.1127 67.7988 69.5394 66.8071 68.9772 66.2025L47.2345 42.9241C46.5707 42.2109 45.3921 42.8494 45.6292 43.8004L53.1274 74.4148C53.3035 75.1484 54.2246 75.3862 54.7394 74.8359L58.1803 71.1204C58.6071 70.6585 59.3521 70.7332 59.6773 71.2698L79.029 102.74C79.2999 103.182 79.8689 103.317 80.3091 103.059C80.7426 102.794 80.8984 102.237 80.6614 101.789Z" fill="white"/>
<path d="M53.7022 70.3314C53.6412 70.3314 53.5803 70.2839 53.5735 70.2227C53.5261 69.9239 50.539 57.9009 47.7551 46.7542C47.6942 46.5165 47.8025 46.2855 48.0193 46.17C48.236 46.0546 48.4866 46.1021 48.6492 46.2855L53.1264 51.3868C53.1739 51.4411 53.1671 51.5226 53.1129 51.5702C53.0587 51.6177 52.9774 51.6109 52.93 51.5566L48.4528 46.4553C48.3512 46.3398 48.2225 46.3534 48.1344 46.3942C48.0464 46.4417 47.9651 46.5436 48.0057 46.6863C49.3604 52.1136 53.7835 69.8559 53.8309 70.182C53.8377 70.2499 53.7902 70.3178 53.7225 70.3246C53.7157 70.3314 53.709 70.3314 53.7022 70.3314Z" fill="url(#paint1_linear_908_7836)"/>
<path d="M86.4385 103.41C86.4385 105.842 84.4742 107.812 82.0493 107.812C79.6245 107.812 77.6602 105.842 77.6602 103.41C77.6602 100.979 79.6245 99.0088 82.0493 99.0088C84.4675 99.0088 86.4385 100.979 86.4385 103.41Z" fill="white"/>
<path d="M79.069 155.621C79.0758 155.356 79.279 155.098 79.6515 155.105C81.9274 155.166 83.8308 153.481 83.8849 151.355C83.8917 151.009 84.183 150.832 84.4675 150.839C84.7519 150.846 85.0297 151.036 85.0229 151.382C84.9687 153.509 86.7772 155.288 89.0598 155.349C89.4324 155.356 89.622 155.628 89.6153 155.893C89.6085 156.158 89.4053 156.416 89.0328 156.409C86.7501 156.348 84.8535 158.032 84.7994 160.159C84.7926 160.505 84.5013 160.682 84.2168 160.675C83.9324 160.668 83.6546 160.478 83.6614 160.131C83.7156 158.005 81.9071 156.226 79.6244 156.164C79.2519 156.158 79.0622 155.886 79.069 155.621Z" fill="white"/>
<path d="M79.069 48.6494C79.0758 48.3845 79.279 48.1264 79.6515 48.1331C81.9274 48.1943 83.8308 46.5097 83.8849 44.3836C83.8917 44.0372 84.183 43.8606 84.4675 43.8674C84.7519 43.8742 85.0297 44.0644 85.0229 44.4108C84.9687 46.5369 86.7772 48.3166 89.0598 48.3777C89.4324 48.3845 89.622 48.6562 89.6153 48.9211C89.6085 49.186 89.4053 49.4441 89.0328 49.4373C86.7501 49.3762 84.8535 51.0608 84.7994 53.1869C84.7926 53.5333 84.5013 53.7099 84.2168 53.7031C83.9324 53.6963 83.6546 53.5061 83.6614 53.1597C83.7156 51.0336 81.9071 49.2539 79.6244 49.1928C79.2519 49.186 79.0622 48.9143 79.069 48.6494Z" fill="white"/>
<path d="M28.2087 96.2473C28.3848 96.2541 28.5541 96.39 28.5473 96.6345C28.5067 98.1493 29.6243 99.4195 31.0264 99.4535C31.2567 99.4603 31.3719 99.6504 31.3651 99.8406C31.3583 100.031 31.2364 100.214 31.0061 100.207C29.5972 100.173 28.4186 101.376 28.3848 102.891C28.378 103.142 28.1951 103.264 28.0258 103.257C27.8497 103.251 27.6803 103.121 27.6871 102.87C27.7278 101.355 26.6101 100.085 25.2013 100.051C24.971 100.044 24.8558 99.8542 24.8626 99.664C24.8694 99.4738 24.9913 99.2904 25.2216 99.2972C26.6305 99.3312 27.809 98.1289 27.8497 96.6141C27.8497 96.3628 28.0326 96.2405 28.2087 96.2473Z" fill="white"/>
<path d="M180.5 86.1862C180.5 86.1862 164.975 81.9816 163.302 99.5066C163.302 99.5066 163.864 112.827 180.5 110.585C180.5 110.585 172.392 107.359 172.528 97.6861C172.67 88.0066 180.5 86.1862 180.5 86.1862Z" fill="#E03C31"/>
<path d="M37.577 30.0262C40.8862 26.7077 40.8862 21.3274 37.577 18.0089C34.2679 14.6905 28.9028 14.6905 25.5937 18.0089C22.2846 21.3274 22.2846 26.7077 25.5937 30.0262C28.9028 33.3447 34.2679 33.3447 37.577 30.0262Z" fill="#E03C31"/>
<defs>
<linearGradient id="paint0_linear_908_7836" x1="45.573" y1="139.674" x2="46.0389" y2="141.429" gradientUnits="userSpaceOnUse">
<stop stop-color="#A537D3"/>
<stop offset="1" stop-color="#ED497A"/>
</linearGradient>
<linearGradient id="paint1_linear_908_7836" x1="47.7424" y1="58.2164" x2="53.8332" y2="58.2164" gradientUnits="userSpaceOnUse">
<stop stop-color="#D9E1FD"/>
<stop offset="1" stop-color="#E7EEFB"/>
</linearGradient>
</defs>
</svg>
