<svg width="224" height="180" viewBox="0 0 224 180" fill="none" xmlns="http://www.w3.org/2000/svg">
<path opacity="0.08" d="M112 180C161.706 180 202 139.706 202 90C202 40.2944 161.706 0 112 0C62.2944 0 22 40.2944 22 90C22 139.706 62.2944 180 112 180Z" fill="#E03C31"/>
<path d="M58.7699 88.3606C50.882 73.9313 32.8848 68.6793 18.5701 76.6334C4.26075 84.5874 -0.947538 102.736 6.94038 117.17C14.8283 131.6 32.8255 136.852 47.1402 128.898C61.4495 120.938 66.6578 102.79 58.7699 88.3606Z" fill="#E03C31"/>
<path d="M45.9919 129.501C45.6252 129.724 45.2586 129.941 44.8812 130.153C44.7518 130.224 44.6278 130.294 44.4984 130.36C44.2073 130.517 43.9161 130.67 43.6196 130.816C29.5313 137.792 12.3429 132.437 4.68141 118.426C-2.62422 105.062 1.30087 88.5069 13.2918 79.8134C14.2461 79.1175 15.2543 78.476 16.3111 77.8888C16.6885 77.6768 17.0713 77.4756 17.4595 77.2853C17.8315 77.1005 18.2089 76.921 18.5864 76.7471C19.7455 76.2251 20.9209 75.7902 22.1125 75.4314C23.8809 74.8931 25.6709 74.5343 27.4717 74.344C33.0466 73.7459 38.6539 74.7735 43.625 77.2309C48.9033 79.8298 53.4646 84.0379 56.5163 89.6215C64.1885 103.67 59.4547 121.242 45.9919 129.501Z" fill="#CBECF6"/>
<path d="M30.8028 131.531C28.2849 131.531 25.7562 131.172 23.2707 130.449C16.3533 128.432 10.6274 123.816 7.15518 117.46C3.67759 111.099 2.86885 103.76 4.86914 96.7842C6.86942 89.8087 11.4469 84.0348 17.7497 80.5335C24.0579 77.0267 31.3365 76.2112 38.2539 78.2283C45.1714 80.2453 50.8973 84.8612 54.3695 91.2168C57.847 97.5779 58.6558 104.918 56.6555 111.893C54.6552 118.869 50.0777 124.643 43.775 128.144C39.7366 130.389 35.2886 131.531 30.8028 131.531ZM8.56239 116.672C11.8297 122.653 17.2159 126.991 23.7182 128.889C30.2205 130.786 37.0732 130.014 42.9986 126.719C48.9293 123.425 53.2318 117.993 55.1135 111.436C56.9952 104.88 56.2296 97.9694 52.9622 91.9943C49.6949 86.0138 44.3087 81.6752 37.8064 79.7777C31.3042 77.8803 24.4514 78.6523 18.5261 81.947C12.5953 85.2418 8.29281 90.6732 6.41114 97.23C4.52947 103.787 5.28968 110.692 8.56239 116.672Z" fill="#DFF6FD"/>
<path d="M21.0277 94.0919C21.4752 93.4177 21.9281 92.7979 22.3055 92.1346C22.5428 91.7214 22.8285 91.6236 23.2814 91.6236C28.3981 91.6236 33.5093 91.6018 38.6259 91.5801C38.9333 91.5801 39.2406 91.5801 39.591 91.5801C39.4994 91.7323 39.4185 91.8574 39.343 91.9824C38.9279 92.624 38.5019 93.2655 38.0975 93.9125C38.0005 94.0647 37.8981 94.1028 37.7309 94.1028C36.3938 94.0973 35.0567 94.0973 33.7196 94.0973C33.6387 94.0973 33.5524 94.0973 33.4392 94.0973C33.5794 94.3202 33.7088 94.5214 33.8328 94.7226C34.2156 95.3532 34.5553 96.0057 34.6901 96.7396C34.717 96.8919 34.8195 96.8756 34.9273 96.8756C36.3992 96.8756 37.8765 96.8756 39.3484 96.8756C39.4185 96.8756 39.494 96.8756 39.6018 96.8756C39.3053 97.3377 39.0303 97.7618 38.7607 98.1858C38.5343 98.5338 38.3024 98.8817 38.0814 99.2351C38.0113 99.3493 37.925 99.3928 37.7902 99.3928C36.8521 99.4037 35.9193 99.42 34.9812 99.4363C34.9381 99.4363 34.8949 99.4417 34.841 99.4417C34.7224 100.344 34.442 101.176 33.9999 101.954C33.1588 103.432 31.9188 104.444 30.3876 105.112C29.1798 105.64 27.9074 105.917 26.6027 106.015C26.5433 106.02 26.484 106.026 26.4247 106.031C26.3277 106.042 26.236 106.053 26.1066 106.069C26.36 106.385 26.5919 106.684 26.8291 106.977C29.1044 109.832 31.3742 112.686 33.6495 115.535C34.2426 116.274 34.8195 117.024 35.4287 117.753C35.6012 117.96 35.6228 118.161 35.5797 118.427C35.4071 118.427 35.2454 118.427 35.0783 118.427C34.0592 118.443 33.0402 118.454 32.0212 118.482C31.8649 118.487 31.757 118.438 31.6546 118.318C30.4792 116.899 29.2985 115.486 28.1123 114.072C26.8345 112.55 25.5567 111.028 24.2843 109.505C23.5079 108.576 22.7315 107.64 21.9551 106.711C21.9173 106.667 21.8688 106.607 21.8688 106.559C21.8634 105.776 21.8634 104.993 21.8634 104.232C22.5643 104.242 23.2922 104.281 24.0201 104.259C25.4542 104.215 26.8614 104.014 28.1878 103.438C29.2391 102.981 30.1126 102.307 30.641 101.241C30.9052 100.709 31.0831 99.9419 31.0615 99.3874C27.7025 99.3874 24.3382 99.3874 20.9253 99.3874C21.2272 98.9307 21.5076 98.5175 21.7826 98.1043C22.0198 97.7509 22.2624 97.4029 22.4889 97.0441C22.5751 96.9027 22.6722 96.8592 22.8339 96.8592C25.3572 96.8647 27.8805 96.8647 30.4037 96.8647C30.5116 96.8647 30.614 96.8647 30.765 96.8647C30.7111 96.7559 30.6733 96.6635 30.6248 96.5765C30.1126 95.6903 29.3362 95.1195 28.4142 94.728C27.4491 94.3148 26.4355 94.1408 25.3949 94.1245C24.0039 94.1082 22.6129 94.0919 21.2272 94.081C21.1625 94.0973 21.1194 94.0973 21.0277 94.0919Z" fill="white"/>
<path d="M167.705 52.9745C155.251 40.1653 134.86 39.9587 122.157 52.5178C109.455 65.0769 109.25 85.639 121.704 98.4482C134.159 111.257 154.55 111.464 167.253 98.9049C179.955 86.3458 180.155 65.7837 167.705 52.9745Z" fill="#E03C31"/>
<path d="M166.223 99.8797C165.905 100.222 165.582 100.559 165.248 100.891C165.134 101.005 165.021 101.114 164.908 101.223C164.649 101.473 164.385 101.717 164.121 101.957C151.364 113.423 131.793 112.868 119.699 100.434C108.167 88.5711 107.493 70.0587 117.543 57.4126C118.346 56.4014 119.214 55.4336 120.152 54.5039C120.486 54.1723 120.832 53.8461 121.177 53.5307C121.511 53.2263 121.856 52.9272 122.206 52.6391C123.269 51.7529 124.379 50.9428 125.522 50.2197C127.221 49.1378 128.994 48.2298 130.822 47.5013C136.494 45.2341 142.673 44.6578 148.598 45.7669C154.885 46.9413 160.886 50.0077 165.7 54.9606C177.821 67.4273 177.95 87.25 166.223 99.8797Z" fill="#ACE0F0"/>
<path d="M150.885 106.472C148.248 107.212 145.488 107.582 142.673 107.554C134.834 107.478 127.496 104.325 122.007 98.6815C116.519 93.038 113.543 85.5733 113.618 77.6736C113.694 69.7684 116.821 62.3689 122.417 56.8342C128.014 51.2995 135.416 48.2983 143.25 48.3745C151.09 48.4506 158.428 51.6039 163.916 57.2474C169.405 62.8908 172.381 70.3556 172.306 78.2553C172.23 86.1604 169.103 93.56 163.507 99.0947C159.921 102.645 155.592 105.151 150.885 106.472ZM123.258 97.4473C128.418 102.754 135.319 105.717 142.69 105.793C150.06 105.869 157.021 103.042 162.283 97.8388C167.545 92.6357 170.483 85.6766 170.559 78.2444C170.634 70.8123 167.831 63.7933 162.671 58.487C157.511 53.1806 150.61 50.2175 143.24 50.1414C135.869 50.0653 128.909 52.8925 123.646 58.0955C118.384 63.2986 115.446 70.2577 115.37 77.6899C115.3 85.122 118.099 92.1355 123.258 97.4473Z" fill="#DFF6FD"/>
<path d="M129.793 70.095C130.063 69.2577 130.359 68.4694 130.564 67.6648C130.693 67.1591 130.968 66.9743 131.437 66.8384C136.802 65.3324 142.156 63.7992 147.515 62.2769C147.839 62.1844 148.162 62.0974 148.529 61.9941C148.475 62.179 148.432 62.3367 148.383 62.4889C148.135 63.2881 147.871 64.0819 147.634 64.8811C147.58 65.0714 147.483 65.1421 147.305 65.191C145.903 65.577 144.501 65.9739 143.099 66.3708C143.013 66.3925 142.927 66.4197 142.803 66.4523C143.013 66.6481 143.207 66.8166 143.396 66.9906C143.984 67.5397 144.523 68.1215 144.879 68.8554C144.954 69.0077 145.051 68.9642 145.164 68.9315C146.712 68.4966 148.254 68.0616 149.801 67.6321C149.877 67.6104 149.952 67.5886 150.071 67.556C149.893 68.1269 149.731 68.6543 149.569 69.1816C149.435 69.6166 149.289 70.0461 149.165 70.4865C149.122 70.6278 149.046 70.6985 148.906 70.7366C147.925 71.0193 146.949 71.3183 145.973 71.6065C145.925 71.6228 145.881 71.6391 145.828 71.6554C145.962 72.634 145.914 73.5909 145.677 74.5369C145.224 76.3311 144.216 77.761 142.803 78.9136C141.687 79.8215 140.436 80.4848 139.093 80.9741C139.034 80.9959 138.969 81.0231 138.91 81.0448C138.813 81.0829 138.716 81.1264 138.587 81.1807C138.943 81.4417 139.271 81.6809 139.606 81.9201C142.814 84.2417 146.027 86.5632 149.235 88.8847C150.071 89.4882 150.896 90.1026 151.742 90.6898C151.979 90.8583 152.066 91.0595 152.098 91.353C151.92 91.402 151.748 91.4509 151.575 91.4998C150.513 91.8152 149.445 92.1305 148.383 92.4567C148.216 92.5057 148.092 92.4893 147.952 92.3915C146.307 91.2498 144.658 90.1189 143.008 88.9826C141.229 87.7593 139.449 86.5414 137.67 85.3236C136.586 84.5788 135.497 83.8285 134.414 83.0782C134.36 83.0401 134.295 82.9966 134.279 82.9423C134.047 82.1213 133.82 81.3003 133.599 80.5011C134.333 80.3054 135.109 80.1314 135.869 79.8922C137.357 79.4246 138.775 78.7994 140.005 77.8045C140.975 77.0107 141.698 76.0484 141.94 74.7816C142.064 74.1455 142.032 73.2919 141.843 72.7156C138.317 73.7051 134.791 74.6946 131.211 75.7004C131.4 75.135 131.567 74.6185 131.739 74.102C131.885 73.6616 132.041 73.2266 132.171 72.7808C132.219 72.6068 132.305 72.5307 132.478 72.4818C135.125 71.7424 137.773 70.9975 140.42 70.2581C140.533 70.2255 140.641 70.1983 140.797 70.1548C140.711 70.057 140.641 69.97 140.565 69.8939C139.773 69.1164 138.792 68.7467 137.713 68.6053C136.581 68.4585 135.47 68.5727 134.37 68.8663C132.909 69.2578 131.448 69.6546 129.987 70.0461C129.939 70.0624 129.89 70.0733 129.793 70.095Z" fill="white"/>
<path d="M214.793 39.7431C202.338 26.9339 181.947 26.7273 169.245 39.2864C156.542 51.8455 156.337 72.4076 168.792 85.2167C181.246 98.0259 201.637 98.2325 214.34 85.6734C227.043 73.1143 227.242 52.5522 214.793 39.7431Z" fill="#E03C31"/>
<path d="M213.311 86.6483C212.993 86.9908 212.669 87.3279 212.335 87.6596C212.222 87.7737 212.109 87.8825 211.995 87.9912C211.736 88.2413 211.472 88.486 211.208 88.7252C198.452 100.191 178.88 99.6369 166.787 87.2029C155.254 75.3397 154.58 56.8273 164.63 44.1812C165.433 43.1699 166.301 42.2022 167.24 41.2725C167.574 40.9408 167.919 40.6146 168.264 40.2993C168.598 39.9948 168.943 39.6958 169.294 39.4076C170.356 38.5214 171.467 37.7114 172.61 36.9883C174.308 35.9063 176.082 34.9984 177.91 34.2698C183.582 32.0027 189.76 31.4264 195.686 32.5355C201.972 33.7098 207.973 36.7762 212.788 41.7292C224.908 54.2013 225.038 74.024 213.311 86.6483Z" fill="#CBECF6"/>
<path d="M197.973 93.2459C195.336 93.9853 192.576 94.355 189.761 94.3278C181.922 94.2517 174.584 91.0984 169.095 85.4549C163.607 79.8115 160.631 72.3467 160.706 64.447C160.781 56.5418 163.909 49.1423 169.505 43.6076C175.102 38.0729 182.504 35.0718 190.338 35.1479C198.178 35.224 205.516 38.3774 211.004 44.0208C216.493 49.6642 219.469 57.129 219.394 65.0287C219.318 72.9339 216.191 80.3334 210.595 85.8681C207.009 89.4129 202.68 91.9247 197.973 93.2459ZM170.346 84.2153C175.506 89.5217 182.407 92.4847 189.778 92.5609C197.148 92.637 204.108 89.8098 209.371 84.6068C214.633 79.4037 217.571 72.4446 217.647 65.0124C217.722 57.5803 214.919 50.5613 209.759 45.255C204.599 39.9486 197.698 36.9855 190.327 36.9094C182.957 36.8333 175.997 39.6605 170.734 44.8635C165.472 50.0666 162.534 57.0257 162.458 64.4579C162.383 71.89 165.186 78.909 170.346 84.2153Z" fill="#DFF6FD"/>
<path d="M176.878 56.8646C177.148 56.0273 177.444 55.2389 177.649 54.4343C177.778 53.9287 178.053 53.7438 178.522 53.6079C183.887 52.1019 189.241 50.5687 194.6 49.0464C194.924 48.954 195.247 48.867 195.614 48.7637C195.56 48.9485 195.517 49.1062 195.468 49.2584C195.22 50.0576 194.956 50.8514 194.719 51.6506C194.665 51.8409 194.568 51.9116 194.39 51.9605C192.988 52.3465 191.586 52.7434 190.184 53.1403C190.098 53.1621 190.012 53.1893 189.888 53.2219C190.098 53.4176 190.292 53.5861 190.481 53.7601C191.069 54.3092 191.608 54.891 191.964 55.6249C192.039 55.7772 192.136 55.7337 192.249 55.7011C193.797 55.2661 195.339 54.8312 196.886 54.4017C196.962 54.3799 197.037 54.3582 197.156 54.3255C196.978 54.8964 196.816 55.4238 196.654 55.9512C196.52 56.3861 196.374 56.8156 196.25 57.256C196.207 57.3974 196.131 57.468 195.991 57.5061C195.01 57.7888 194.034 58.0878 193.058 58.376C193.01 58.3923 192.967 58.4086 192.913 58.4249C193.047 59.4035 192.999 60.3604 192.762 61.3064C192.309 63.1006 191.3 64.5305 189.888 65.6831C188.772 66.591 187.521 67.2543 186.178 67.7436C186.119 67.7654 186.054 67.7926 185.995 67.8143C185.898 67.8524 185.801 67.8959 185.672 67.9502C186.027 68.2112 186.356 68.4504 186.691 68.6897C189.899 71.0112 193.112 73.3327 196.32 75.6542C197.156 76.2577 197.981 76.8721 198.827 77.4593C199.064 77.6278 199.151 77.829 199.183 78.1226C199.005 78.1715 198.833 78.2204 198.66 78.2694C197.598 78.5847 196.53 78.9 195.468 79.2262C195.301 79.2752 195.177 79.2589 195.037 79.161C193.392 78.0193 191.743 76.8884 190.093 75.7521C188.314 74.5288 186.534 73.311 184.755 72.0931C183.671 71.3483 182.582 70.598 181.499 69.8477C181.445 69.8096 181.38 69.7661 181.364 69.7118C181.132 68.8908 180.905 68.0699 180.684 67.2706C181.418 67.0749 182.194 66.9009 182.954 66.6617C184.442 66.1941 185.86 65.5689 187.09 64.574C188.06 63.7802 188.783 62.8179 189.025 61.5511C189.149 60.915 189.117 60.0614 188.928 59.4851C185.402 60.4746 181.876 61.4641 178.296 62.4699C178.485 61.9045 178.652 61.388 178.824 60.8715C178.97 60.4311 179.126 59.9962 179.256 59.5503C179.304 59.3764 179.39 59.3003 179.563 59.2513C182.21 58.5119 184.858 57.7671 187.505 57.0277C187.618 56.995 187.726 56.9679 187.882 56.9244C187.796 56.8265 187.726 56.7395 187.65 56.6634C186.858 55.8859 185.877 55.5162 184.798 55.3749C183.666 55.2281 182.555 55.3422 181.455 55.6358C179.994 56.0273 178.533 56.4242 177.072 56.8156C177.024 56.8374 176.975 56.8428 176.878 56.8646Z" fill="white"/>
<path opacity="0.3" d="M109.798 179C132.821 179 151.486 176.22 151.486 172.791C151.486 169.362 132.821 166.582 109.798 166.582C86.7742 166.582 68.1099 169.362 68.1099 172.791C68.1099 176.22 86.7742 179 109.798 179Z" fill="#CBECF6"/>
<path d="M106.574 124.51L90.124 171.386C95.2353 176.769 126.679 176.176 129.359 171.386L112.909 124.51H106.574Z" fill="#8DDFF8"/>
<path d="M122.935 174.144L112.48 127.664L109.342 127.708L107.8 175.187C113.213 175.307 118.788 174.943 122.935 174.144Z" fill="#8DDFF8"/>
<path d="M100.376 174.674L109.649 122.861L95.728 173.875C97.1245 174.207 98.6988 174.468 100.376 174.674Z" fill="white"/>
<path d="M109.965 134.35C111.97 134.35 113.83 133.459 115.356 131.942L113.07 125.233L106.53 124.912L104.25 131.605C105.829 133.328 107.808 134.35 109.965 134.35Z" fill="#8DDFF8"/>
<path d="M109.644 132.622C113.084 132.622 115.872 129.81 115.872 126.342C115.872 122.874 113.084 120.062 109.644 120.062C106.205 120.062 103.417 122.874 103.417 126.342C103.417 129.81 106.205 132.622 109.644 132.622Z" fill="#DFF6FD"/>
<path d="M109.65 130.788C111.663 130.788 113.294 129.014 113.294 126.825C113.294 124.636 111.663 122.861 109.65 122.861C107.637 122.861 106.005 124.636 106.005 126.825C106.005 129.014 107.637 130.788 109.65 130.788Z" fill="#E03C31" fill-opacity="0.9"/>
<path d="M109.644 120.062C106.204 120.062 103.417 122.873 103.417 126.342C103.417 126.793 103.466 127.239 103.557 127.663C105.11 127.087 107.159 126.608 109.828 126.445C112.135 126.304 114.114 126.766 115.769 127.5C115.839 127.125 115.877 126.739 115.877 126.342C115.877 122.873 113.084 120.062 109.644 120.062Z" fill="#DFF6FD"/>
<path d="M114.021 126.877C114.043 126.703 114.054 126.524 114.054 126.344C114.054 123.892 112.08 121.902 109.649 121.902C107.217 121.902 105.244 123.892 105.244 126.344C105.244 126.611 105.271 126.872 105.314 127.122C106.575 126.801 108.063 126.556 109.827 126.448" fill="#E03C31" fill-opacity="0.9"/>
<path d="M41.7552 140.118L37.2612 141.27L37.6822 142.94L42.1761 141.788L41.7552 140.118Z" fill="#8DDFF8"/>
<path d="M64.7339 139.908L65.9092 135.711L46.5372 140.675L45.3618 144.872L64.7339 139.908Z" fill="#8DDFF8"/>
<path d="M76.1268 133.091L68.9937 134.918L67.8184 139.115L74.9568 137.288L76.1268 133.091Z" fill="#8DDFF8"/>
<path d="M177.665 110.973L41.8509 145.769C40.0555 146.231 38.2277 145.132 37.7694 143.322L37.6724 142.947L180 106.477L180.097 106.852C180.55 108.668 179.466 110.511 177.665 110.973Z" fill="#8DDFF8"/>
<path d="M127.239 123.892L92.5383 132.781L89.5352 129.655L128.144 119.766L127.239 123.892Z" fill="#8DDFF8"/>
<path d="M62.3246 134.847L16.6847 146.542C12.3606 147.651 7.96645 145.014 6.87196 140.654L6.64551 139.746L67.9426 124.039L68.1691 124.947C69.2636 129.313 66.6487 133.744 62.3246 134.847Z" fill="#8DDFF8"/>
<path d="M200.157 99.535L154.517 111.23C150.193 112.339 145.798 109.702 144.704 105.342L144.478 104.434L205.775 88.7266L206.001 89.6345C207.096 93.9948 204.481 98.4259 200.157 99.535Z" fill="#8DDFF8"/>
<path d="M179.582 104.799L175.088 105.95L175.509 107.621L180.003 106.469L179.582 104.799Z" fill="#8DDFF8"/>
<path d="M58.9981 126.331L55.1755 127.31L54.6147 136.824L58.4428 135.84L58.9981 126.331Z" fill="#E03C31"/>
<path d="M197.185 90.9297L193.357 91.9138L192.802 101.423L196.624 100.439L197.185 90.9297Z" fill="#E03C31"/>
<path d="M158.523 115.878L159.698 111.681L140.326 116.645L139.151 120.842L158.523 115.878Z" fill="#8DDFF8"/>
<path d="M169.916 109.061L162.783 110.893L161.607 115.09L168.746 113.258L169.916 109.061Z" fill="#8DDFF8"/>
<path d="M54.1815 73.9998C53.9652 74.0066 53.7414 73.8701 53.7304 73.5834C53.6534 71.8531 52.1791 70.5017 50.4517 70.5699C50.1693 70.5802 50.0116 70.3686 50.0006 70.157C49.9896 69.942 50.129 69.7202 50.4114 69.7099C52.1424 69.6417 53.4847 68.1776 53.404 66.4473C53.3894 66.1641 53.6021 66.0071 53.8148 66.0002C54.0275 65.9934 54.2549 66.1299 54.2659 66.4132C54.3429 68.1435 55.8172 69.4949 57.5483 69.4267C57.8307 69.4164 57.9884 69.628 57.9994 69.8396C58.0104 70.0546 57.871 70.2764 57.5886 70.2867C55.8576 70.3549 54.5153 71.819 54.5923 73.5493C54.607 73.8359 54.3943 73.9929 54.1815 73.9998Z" fill="#E03C31"/>
</svg>
