<svg width="208" height="180" viewBox="0 0 208 180" fill="none" xmlns="http://www.w3.org/2000/svg">
<path opacity="0.08" d="M103.597 180C151.699 180 190.694 141.005 190.694 92.9032C190.694 44.801 151.699 5.80645 103.597 5.80645C55.4946 5.80645 16.5 44.801 16.5 92.9032C16.5 141.005 55.4946 180 103.597 180Z" fill="#E03C31"/>
<path d="M123.269 61.9434C123.012 61.9551 122.736 61.7918 122.711 61.4476C122.58 59.3537 120.77 57.7498 118.679 57.8606C118.334 57.8781 118.14 57.6273 118.121 57.3648C118.103 57.1082 118.265 56.8341 118.61 56.8166C120.701 56.6999 122.292 54.9035 122.16 52.8154C122.141 52.4713 122.392 52.2788 122.649 52.2672C122.905 52.2555 123.181 52.4188 123.206 52.7571C123.337 54.851 125.147 56.455 127.239 56.3441C127.583 56.3266 127.777 56.5774 127.796 56.8399C127.815 57.0965 127.652 57.3707 127.307 57.3882C125.216 57.5048 123.625 59.3012 123.757 61.3893C123.776 61.7393 123.525 61.9317 123.269 61.9434Z" fill="#E03C31"/>
<path d="M39.2832 95.8745C38.8108 97.2179 38.4031 98.6009 38.0601 100.019C38.6865 99.2403 39.1141 98.1894 39.2832 96.975C39.3031 96.8213 39.2981 96.4297 39.2832 95.8745Z" fill="#8DDFF8"/>
<path d="M41.1132 109.341C40.795 108.949 40.2182 108.89 39.8254 109.207C38.841 110 37.8864 110.823 36.9666 111.671C37.0461 112.394 37.1605 113.123 37.2997 113.862C38.4681 112.741 39.6912 111.661 40.9739 110.625C41.3717 110.303 41.4314 109.733 41.1132 109.341Z" fill="#8DDFF8"/>
<path d="M41.0937 97.2288C41.1733 96.6637 41.0887 94.8941 40.9197 91.8901C40.3131 93.174 39.7662 94.5074 39.2839 95.8805C39.2988 96.4307 39.3038 96.8273 39.2789 96.981C39.1099 98.1954 38.6823 99.2463 38.0558 100.025C37.8371 100.927 37.6432 101.844 37.4741 102.781C37.9465 102.553 38.384 102.26 38.7768 101.913C40.0048 100.833 40.8252 99.172 41.0937 97.2288Z" fill="#8DDFF8"/>
<path d="M166.942 107.366C166.767 109.984 166.538 112.586 166.259 115.089C166.882 112.437 167.126 109.855 166.942 107.366Z" fill="#8DDFF8"/>
<path d="M152.014 135.003C151.532 134.855 151.02 135.122 150.871 135.603C149.752 139.177 146.868 144.149 144.373 148.06C146.267 146.216 148.092 144.332 149.827 142.424C151.005 140.218 152.024 138.032 152.616 136.143C152.765 135.663 152.497 135.152 152.014 135.003Z" fill="#8DDFF8"/>
<path d="M153.778 129.719C153.902 129.779 154.032 129.803 154.161 129.803C154.504 129.803 154.837 129.61 154.991 129.278C158.322 122.115 159.078 107.561 158.486 103.586C158.412 103.09 157.949 102.743 157.447 102.818C156.95 102.892 156.602 103.353 156.677 103.854C157.263 107.804 156.403 121.917 153.33 128.515C153.122 128.966 153.321 129.511 153.778 129.719Z" fill="#8DDFF8"/>
<path d="M157.06 96.4326C156.98 96.9283 157.323 97.3943 157.82 97.4736C157.87 97.4835 157.915 97.4835 157.964 97.4835C158.407 97.4835 158.795 97.1613 158.864 96.7152C159.302 93.9492 159.202 89.6465 158.561 84.7539C157.85 83.8319 157.099 82.9496 156.314 82.1069C157.288 87.7975 157.577 93.161 157.06 96.4326Z" fill="#8DDFF8"/>
<path d="M44.4743 97.0572C44.4296 97.5579 44.8025 97.999 45.3047 98.0436C45.3295 98.0436 45.3594 98.0486 45.3842 98.0486C45.8516 98.0486 46.2543 97.6917 46.2941 97.2158C46.3189 96.9382 46.2891 96.2591 46.2145 94.6134C46.1002 92.0754 45.9162 87.9413 45.9411 83.9063C45.3047 84.6845 44.6981 85.4876 44.1213 86.3204C44.1561 89.5672 44.2954 92.6455 44.3849 94.6927C44.4395 95.808 44.4893 96.8589 44.4743 97.0572Z" fill="#8DDFF8"/>
<path d="M36.8341 109.779C39.8322 107.806 43.755 104.519 45.2267 101.506C45.4455 101.054 45.2565 100.509 44.8041 100.286C44.3517 100.068 43.8047 100.256 43.581 100.707C42.4225 103.077 39.4245 105.709 36.8738 107.533C36.8241 108.272 36.8092 109.02 36.8341 109.779Z" fill="#8DDFF8"/>
<path d="M99.9243 114.897C100.034 114.941 100.148 114.961 100.262 114.961C100.625 114.961 100.968 114.743 101.113 114.386C102.371 111.209 103.126 107.555 103.355 103.525C103.549 100.09 103.39 96.3973 102.858 91.8914C102.838 91.7278 102.818 91.5692 102.803 91.4056C102.584 89.5368 102.361 87.6036 101.57 85.7794C101.371 85.3184 100.834 85.1052 100.367 85.3035C99.9044 85.5018 99.6907 86.0371 99.8895 86.5031C100.571 88.0794 100.78 89.8739 100.983 91.6138C101.003 91.7773 101.023 91.9409 101.043 92.1045C101.565 96.5014 101.719 100.095 101.53 103.421C101.312 107.258 100.601 110.723 99.4122 113.717C99.2233 114.183 99.452 114.713 99.9243 114.897Z" fill="#8DDFF8"/>
<path d="M79.2276 137.407C77.5371 138.532 75.787 139.697 74.2855 141.144C71.5111 143.816 70.999 146.686 72.8883 149.026C73.7584 150.102 75.0064 150.642 76.5029 150.642C78.1089 150.642 80.0032 150.027 82.0317 148.793C82.4643 148.53 82.5985 147.97 82.34 147.539C82.0765 147.108 81.5147 146.974 81.0821 147.232C79.9336 147.926 76.0505 150.032 74.3153 147.876C72.7292 145.908 74.1164 143.841 75.5583 142.448C76.9454 141.115 78.626 139.999 80.2468 138.919C81.4351 138.13 82.6582 137.313 83.7918 136.405C86.4021 134.309 89.425 131.781 92.0701 128.935C93.3429 127.567 96.6592 122.694 97.6237 121.064C97.7033 120.93 97.8972 120.608 98.1309 120.226C98.7474 119.215 99.2645 118.357 99.4136 118.084C99.6573 117.643 99.4932 117.088 99.0457 116.85C98.6032 116.607 98.0464 116.771 97.8077 117.217C97.6685 117.475 97.0072 118.565 96.5647 119.284C96.3261 119.676 96.1272 120.008 96.0476 120.142C95.1079 121.733 91.8861 126.457 90.7277 127.701C88.1621 130.462 85.1989 132.936 82.6433 134.993C81.5743 135.845 80.3811 136.638 79.2276 137.407Z" fill="#8DDFF8"/>
<path d="M84.482 145.35C84.0544 145.617 83.9251 146.182 84.1986 146.609C84.3726 146.881 84.6709 147.035 84.9742 147.035C85.1432 147.035 85.3073 146.99 85.4614 146.896C91.6813 142.985 97.1505 137.929 101.73 131.862C105.523 126.83 108.576 121.174 110.316 115.935C110.475 115.459 110.217 114.943 109.734 114.785C109.257 114.626 108.74 114.884 108.581 115.365C105.563 124.426 97.6477 137.071 84.482 145.35Z" fill="#8DDFF8"/>
<path d="M109.708 82.9375C111.359 88.7471 111.572 93.714 111.378 100.332C111.259 104.302 110.668 108.283 109.713 111.544C109.569 112.025 109.847 112.536 110.334 112.675C110.419 112.699 110.508 112.709 110.593 112.709C110.991 112.709 111.354 112.451 111.468 112.055C112.467 108.649 113.084 104.505 113.208 100.386C113.402 93.7636 113.178 88.4547 111.473 82.4418C110.837 80.2013 109.623 78.3374 107.933 76.9544C107.401 77.3064 106.874 77.6732 106.362 78.0549C107.988 79.2247 109.116 80.8605 109.708 82.9375Z" fill="#8DDFF8"/>
<path d="M93.1313 76.5631C91.4359 77.9213 90.347 80.0776 90.2178 82.328C90.1034 84.3802 90.4415 86.4275 90.7746 88.4103C90.8442 88.8217 90.9138 89.2331 90.9735 89.6396C91.0481 90.1105 91.1227 90.5814 91.1972 91.0573C91.5005 92.9558 91.8187 94.9238 91.9928 96.857C92.2115 99.3008 92.1867 101.73 91.9231 104.064C91.6596 106.409 91.1475 108.694 90.4017 110.856C90.2377 111.331 90.4912 111.852 90.9685 112.015C91.068 112.05 91.1674 112.065 91.2669 112.065C91.6447 112.065 92.0027 111.827 92.132 111.45C92.9225 109.165 93.4645 106.746 93.7429 104.268C94.0213 101.809 94.0462 99.2611 93.8125 96.6934C93.6335 94.6957 93.3153 92.6981 93.0021 90.7698C92.9275 90.2989 92.8529 89.8329 92.7783 89.362C92.7137 88.9506 92.6441 88.5342 92.5745 88.1128C92.2612 86.2292 91.9381 84.286 92.0425 82.4321C92.1419 80.6873 92.9772 79.0217 94.2749 77.9857C94.4539 77.842 94.6378 77.7131 94.8218 77.609C95.2096 77.3859 95.3737 76.9249 95.2295 76.5184C94.9063 76.3152 94.5782 76.112 94.245 75.9186C94.1307 75.9335 94.0213 75.9682 93.9119 76.0277C93.6484 76.1814 93.3849 76.3598 93.1313 76.5631Z" fill="#8DDFF8"/>
<path d="M86.767 157.27C88.3729 156.422 91.028 154.464 93.1609 152.893C93.9962 152.273 94.7221 151.743 95.2491 151.371C101.862 146.751 106.57 142.463 113.964 131.85C114.341 131.31 123.211 118.397 123.211 103.179C123.211 102.673 122.804 102.267 122.296 102.267C121.789 102.267 121.382 102.673 121.382 103.179C121.382 108.919 120.069 115.011 117.474 121.282C115.172 126.849 112.73 130.423 112.457 130.809C105.223 141.199 100.629 145.383 94.1951 149.879C93.6482 150.261 92.9173 150.801 92.0671 151.425C90.0932 152.878 87.3935 154.871 85.9069 155.659C79.155 159.228 72.8356 159.421 68.5647 156.179C66.5064 154.613 63.737 151.867 63.4735 146.082C63.2298 140.674 67.0831 137.972 70.4789 135.593C71.0557 135.186 71.6026 134.805 72.1147 134.418C72.2788 134.294 72.5174 134.121 72.8108 133.902C76.5049 131.196 87.7465 122.957 90.5009 115.299C90.67 114.823 90.4264 114.303 89.949 114.134C89.4717 113.965 88.9497 114.208 88.7806 114.684C87.6968 117.693 84.9522 121.247 80.6167 125.248C77.0717 128.519 73.4621 131.166 71.7269 132.435C71.4236 132.658 71.18 132.837 71.0109 132.966C70.5237 133.332 69.9917 133.709 69.4249 134.101C67.6748 135.33 65.686 136.723 64.1546 138.597C62.3349 140.827 61.5145 143.301 61.6438 146.161C61.7233 147.916 62.0067 149.502 62.499 150.95C66.0141 154.177 69.7083 157.26 73.4571 160.13C74.2278 160.249 75.0183 160.308 75.8287 160.308C79.2196 160.308 82.9436 159.292 86.767 157.27Z" fill="#8DDFF8"/>
<path d="M115.663 74.0289C117.776 76.4628 122.917 85.544 121.386 98.1744C121.326 98.6751 121.684 99.1261 122.181 99.1906C122.216 99.1955 122.256 99.1955 122.291 99.1955C122.748 99.1955 123.141 98.8585 123.196 98.3925C124.638 86.5106 120.302 76.6016 117.04 72.8392C116.961 72.75 116.871 72.6806 116.767 72.6261C116.344 72.7698 115.927 72.9185 115.509 73.0771C115.38 73.3845 115.425 73.7562 115.663 74.0289Z" fill="#8DDFF8"/>
<path d="M80.3687 87.771C80.4532 88.2073 80.8361 88.5096 81.2637 88.5096C81.3233 88.5096 81.378 88.5047 81.4377 88.4948C81.9349 88.4006 82.2581 87.9197 82.1636 87.429C81.6714 84.8811 81.6465 80.8659 82.7503 78.0603L82.7652 78.0256C83.5657 75.7255 84.5998 74.0451 86.2605 72.3647C85.6091 72.1615 84.9479 71.9781 84.2816 71.8095C82.8199 73.4552 81.8106 75.2051 81.0399 77.4109C79.8069 80.5685 79.8119 84.891 80.3687 87.771Z" fill="#8DDFF8"/>
<path d="M68.8038 125.866C74.4569 122.009 78.5935 117.042 81.0845 111.099C83.2522 105.944 84.0378 100.317 83.3616 94.8349C83.2522 93.9377 83.1081 93.0206 82.9291 92.1086C82.8346 91.6129 82.3573 91.2906 81.8601 91.3848C81.3629 91.479 81.0397 91.9549 81.1342 92.4506C81.3032 93.323 81.4425 94.1954 81.5469 95.058C82.9688 106.553 77.8179 117.508 67.7696 124.359C61.0923 128.909 56.8313 132.86 54.3603 136.781C53.5449 138.07 52.9234 139.378 52.4709 140.712C52.9383 141.242 53.4106 141.778 53.8929 142.303C55.2851 136.94 60.0134 131.859 68.8038 125.866Z" fill="#8DDFF8"/>
<path d="M96.3641 162.272L96.4089 162.242C96.8166 161.999 96.9757 161.479 96.7569 161.048C96.5282 160.596 95.9813 160.418 95.5288 160.646C95.4841 160.671 95.4592 160.686 95.3846 160.735C94.2162 161.479 89.9851 164.037 84.69 165.861C83.974 166.109 83.273 166.322 82.5769 166.525C83.1387 166.867 83.8497 167.298 84.6651 167.789C84.869 167.72 85.0728 167.655 85.2816 167.586C90.7707 165.697 95.151 163.04 96.3641 162.272Z" fill="#8DDFF8"/>
<path d="M99.0005 158.187C98.5779 158.46 98.4586 159.025 98.732 159.446C98.906 159.714 99.1994 159.858 99.4977 159.858C99.6667 159.858 99.8408 159.808 99.9949 159.709C107.9 154.578 114.548 148.392 119.763 141.323C124.178 135.345 127.604 128.683 129.956 121.52C134.6 107.358 133.799 95.3472 133.237 90.8413C133.173 90.3406 132.715 89.9887 132.218 90.0482C131.716 90.1077 131.363 90.5637 131.423 91.0644C132.313 98.1876 134.908 134.864 99.0005 158.187Z" fill="#8DDFF8"/>
<path d="M131.683 87.0791C132.19 87.0791 132.597 86.7965 132.602 86.2959C132.627 81.557 130.092 74.6568 127.939 70.6565C127.248 70.6764 126.566 70.7111 125.885 70.7656C127.869 74.1463 130.798 81.4628 130.773 86.276C130.768 86.7816 131.175 87.0791 131.683 87.0791Z" fill="#8DDFF8"/>
<path d="M72.3886 75.5972C72.5178 75.6617 72.6521 75.6914 72.7863 75.6914C73.1244 75.6914 73.4525 75.5031 73.6067 75.1759C74.4072 73.5351 75.2474 72.0381 76.1175 70.665C75.7098 70.6502 75.2971 70.6452 74.8845 70.6452C74.5812 70.6452 74.2779 70.6502 73.9746 70.6551C73.2835 71.8151 72.6073 73.0543 71.961 74.3828C71.7472 74.8339 71.9361 75.3791 72.3886 75.5972Z" fill="#8DDFF8"/>
<path d="M53.4773 126.735C53.6862 126.735 53.8999 126.666 54.069 126.517C55.844 125.01 57.4648 123.667 58.8968 122.477C66.1856 116.439 69.84 113.411 72.0227 106.758C73.3502 102.703 73.032 96.8641 72.7287 91.2181C72.4851 86.7667 72.2564 82.5632 72.8232 79.5246C72.9176 79.0289 72.5895 78.553 72.0923 78.4638C71.5951 78.3696 71.1178 78.6968 71.0283 79.1925C70.4217 82.4492 70.6554 86.7568 70.904 91.3173C71.2023 96.7947 71.5106 102.461 70.2875 106.193C68.2738 112.345 64.9675 115.081 57.7333 121.074C56.2964 122.264 54.6706 123.612 52.8857 125.129C52.5028 125.456 52.4531 126.031 52.7813 126.413C52.9603 126.626 53.2188 126.735 53.4773 126.735Z" fill="#8DDFF8"/>
<path d="M50.7753 127.872C50.4272 127.51 49.8505 127.495 49.4826 127.842C48.1153 129.141 46.8972 130.638 45.8381 132.274C46.211 132.809 46.5889 133.344 46.9767 133.875C48.0457 132.12 49.3086 130.524 50.7455 129.161C51.1084 128.814 51.1233 128.239 50.7753 127.872Z" fill="#8DDFF8"/>
<path d="M120.526 155.35C120.819 154.938 120.72 154.368 120.307 154.081C119.895 153.788 119.323 153.887 119.034 154.299C115.087 159.876 103.706 169.165 94.7266 173.562C95.3978 173.924 96.059 174.281 96.7054 174.618C100.305 172.744 104.317 170.136 108.384 167.004C113.754 162.855 118.294 158.502 120.526 155.35Z" fill="#8DDFF8"/>
<path d="M134.735 134.742C134.278 134.524 133.736 134.717 133.517 135.173C130.46 141.593 126.89 146.564 122.296 150.817C121.928 151.16 121.903 151.735 122.246 152.106C122.425 152.3 122.669 152.399 122.917 152.399C123.141 152.399 123.365 152.319 123.539 152.156C128.247 147.799 132.051 142.5 135.168 135.956C135.387 135.5 135.193 134.96 134.735 134.742Z" fill="#8DDFF8"/>
<path d="M136.148 131.437C136.283 131.502 136.422 131.536 136.561 131.536C136.894 131.536 137.217 131.353 137.376 131.036C141.767 122.361 144.039 112.278 144.128 101.066C144.223 89.7041 141.975 81.1038 141.284 78.7343C141.145 78.2535 140.638 77.9709 140.151 78.1147C139.668 78.2535 139.385 78.7591 139.529 79.2449C140.355 82.0704 147.241 107.485 135.741 130.218C135.517 130.664 135.701 131.214 136.148 131.437Z" fill="#8DDFF8"/>
<path d="M138.61 76.129C138.68 76.129 138.749 76.1191 138.819 76.1042C139.311 75.9902 139.614 75.4995 139.5 75.0087C139.237 73.8934 138.928 72.8177 138.585 71.7817C137.894 71.6132 137.188 71.4595 136.477 71.3257C136.959 72.6393 137.382 74.0024 137.72 75.4251C137.819 75.8464 138.197 76.129 138.61 76.129Z" fill="#8DDFF8"/>
<path d="M60.4807 93.1641C61.1121 101.532 61.5248 107.064 53.505 112.774C53.0924 113.066 52.9979 113.637 53.2912 114.043C53.4702 114.291 53.7487 114.425 54.037 114.425C54.221 114.425 54.4049 114.37 54.569 114.256C58.646 111.351 61.0077 108.223 62.0021 104.416C62.902 100.961 62.6236 97.2834 62.3054 93.0253C61.9374 88.1625 61.5248 82.6454 62.723 75.8939C62.9169 74.7885 63.255 73.5344 63.7423 72.1762C63.0114 72.3893 62.2904 72.6223 61.5844 72.8751C61.301 73.807 61.0773 74.7092 60.9232 75.5767C59.6802 82.5611 60.1028 88.1972 60.4807 93.1641Z" fill="#8DDFF8"/>
<path d="M49.7273 115.155C49.6229 115.244 49.0859 115.616 48.6186 115.943C46.9828 117.083 44.5068 118.803 43.4676 119.953C43.1295 120.325 43.1594 120.905 43.5372 121.242C43.7113 121.401 43.93 121.475 44.1488 121.475C44.3974 121.475 44.651 121.371 44.83 121.173C45.7299 120.177 48.2904 118.397 49.6677 117.435C50.4483 116.89 50.8013 116.647 50.9653 116.498C51.3382 116.156 51.3631 115.581 51.025 115.21C50.677 114.843 50.1002 114.813 49.7273 115.155Z" fill="#8DDFF8"/>
<path d="M41.668 124.42C41.9865 124.028 41.9218 123.452 41.5287 123.14C41.2053 122.882 40.7675 122.882 40.4441 123.1C40.7227 123.685 41.0113 124.271 41.3198 124.861C41.3795 124.787 41.4392 124.712 41.4989 124.643L41.668 124.42Z" fill="#8DDFF8"/>
<path d="M138.316 149.638C137.824 149.544 137.346 149.866 137.247 150.357C137.008 151.235 133.468 155.978 128.218 161.738C130.679 159.919 133.125 158.006 135.527 156.008C137.406 153.654 138.878 151.572 139.042 150.704C139.136 150.213 138.808 149.733 138.316 149.638Z" fill="#8DDFF8"/>
<path d="M145.691 134.79C144.612 137.526 143.399 140.154 142.086 142.607C141.316 144.04 140.495 145.453 139.64 146.791C139.372 147.217 139.496 147.777 139.924 148.05C140.078 148.144 140.247 148.194 140.411 148.194C140.714 148.194 141.008 148.045 141.182 147.772C142.057 146.394 142.902 144.947 143.692 143.47C145.04 140.957 146.283 138.26 147.387 135.459C148.426 132.822 149.375 130.007 150.211 127.092C150.35 126.606 150.066 126.105 149.584 125.967C149.097 125.828 148.595 126.11 148.456 126.591C147.64 129.451 146.71 132.207 145.691 134.79Z" fill="#8DDFF8"/>
<path d="M150.764 123.238C150.828 123.253 150.888 123.258 150.948 123.258C151.37 123.258 151.753 122.961 151.843 122.53C152.061 121.459 153.518 113.037 153.105 109.468C153.046 108.967 152.598 108.61 152.091 108.665C151.589 108.724 151.231 109.175 151.286 109.676C151.639 112.759 150.351 120.695 150.048 122.163C149.948 122.658 150.266 123.139 150.764 123.238Z" fill="#8DDFF8"/>
<path d="M149.479 81.555C149.579 82.0407 149.649 82.5017 149.728 82.9875C149.803 83.4584 149.882 83.9492 149.982 84.4647C150.832 90.7849 151.598 97.5363 151.433 104.342C151.424 104.848 151.821 105.239 152.323 105.239C152.328 105.239 152.338 105.239 152.348 105.239C152.841 105.239 153.248 104.883 153.263 104.387C153.432 97.4471 152.657 90.5816 151.791 84.1772L151.781 84.1276C151.682 83.6418 151.612 83.1858 151.533 82.7C151.458 82.2192 151.379 81.7235 151.274 81.203C151.006 79.7655 150.717 78.3775 150.409 77.0342C149.688 76.5434 148.947 76.0725 148.187 75.6313C148.664 77.52 149.092 79.4879 149.475 81.5401L149.479 81.555Z" fill="#8DDFF8"/>
<path d="M50.0554 90.7325C50.1499 92.8492 50.2444 95.0352 50.2444 97.1717C50.2444 99.2734 49.782 100.904 48.7926 102.307C47.8926 103.527 46.6994 104.577 44.9294 105.708C44.5068 105.98 44.3825 106.54 44.6509 106.967C44.825 107.239 45.1183 107.388 45.4216 107.388C45.5906 107.388 45.7597 107.343 45.9138 107.244C47.8877 105.985 49.2301 104.791 50.2692 103.378L50.2792 103.363C51.4874 101.658 52.0691 99.6353 52.0691 97.1667C52.0691 94.9856 51.9696 92.7798 51.8752 90.6483C51.7111 87.0148 51.547 83.2574 51.8603 79.5446C51.9249 79.0241 51.9895 78.5185 52.0542 78.0129C51.3531 78.5433 50.6769 79.0935 50.0157 79.6735C49.7323 83.4111 49.8914 87.1338 50.0554 90.7325Z" fill="#8DDFF8"/>
<path d="M50.4972 110.25C50.9447 110.017 51.1187 109.467 50.885 109.021C50.6513 108.575 50.0995 108.401 49.652 108.634C46.9174 110.057 43.631 112.402 40.6378 115.078C39.897 115.738 39.0617 116.521 38.1917 117.403C38.3905 118.048 38.6143 118.697 38.8529 119.351C42.6366 115.386 47.1262 112.005 50.4972 110.25Z" fill="#8DDFF8"/>
<path d="M53.5497 107.771C53.8033 107.771 54.0519 107.667 54.2358 107.464C55.5385 105.997 56.4086 104.584 56.8958 103.131C57.3831 101.768 57.3682 100.37 57.3582 99.0221C57.3582 98.809 57.3532 98.5958 57.3532 98.3877C57.3881 96.0232 57.2638 93.624 57.1444 91.3041C56.9207 86.9519 56.687 82.4509 57.5124 78.1235C57.6068 77.6278 57.2836 77.1519 56.7864 77.0577C56.2893 76.9635 55.8119 77.2857 55.7175 77.7814C54.8474 82.322 54.9916 86.937 55.2203 91.3983C55.3396 93.6934 55.3297 96.0628 55.3297 98.3678V98.3827C55.3297 98.6008 55.4291 98.8239 55.4291 99.042C55.439 100.291 55.4987 101.466 55.1208 102.532L55.1606 102.552C54.7479 103.781 54.0171 104.961 52.8636 106.259C52.5305 106.636 52.5653 107.211 52.9382 107.543C53.1171 107.697 53.3359 107.771 53.5497 107.771Z" fill="#8DDFF8"/>
<path d="M143.177 73.2793C143.212 73.2793 143.252 73.2744 143.287 73.2694C143.023 73.165 142.759 73.0657 142.496 72.9663C142.665 73.165 142.914 73.2793 143.177 73.2793Z" fill="#8DDFF8"/>
<path d="M143.817 125.748C142.738 128.876 140.954 133.481 139.571 136.703C139.372 137.164 139.586 137.699 140.054 137.898C140.173 137.947 140.292 137.972 140.412 137.972C140.765 137.972 141.103 137.764 141.252 137.417C142.654 134.15 144.459 129.486 145.553 126.318L145.563 126.283C148.372 116.905 148.665 106.327 148.416 99.1042C148.133 90.9153 147.004 82.5231 145.398 76.659C145.264 76.1732 144.762 75.8857 144.275 76.0195C143.788 76.1534 143.499 76.654 143.633 77.1398C146.562 87.7973 148.551 109.92 143.817 125.748Z" fill="#8DDFF8"/>
<path d="M117.439 167.17C117.474 167.135 117.574 167.041 117.738 166.887C122.854 162.064 135.149 149.999 138.744 142.182C138.953 141.726 138.754 141.185 138.297 140.972C137.839 140.764 137.297 140.962 137.084 141.418C133.618 148.943 121.521 160.81 116.48 165.564C116.316 165.718 116.206 165.822 116.157 165.866C113.71 168.147 106.645 173.277 100.788 176.603C101.186 176.777 101.564 176.935 101.912 177.069C103.717 176.37 106.213 175.121 108.848 173.698C112.547 171.18 115.843 168.657 117.415 167.19L117.439 167.17Z" fill="#8DDFF8"/>
<path d="M43.7241 129.076C43.8784 129.324 44.0327 129.567 44.187 129.814C44.172 129.581 44.0675 129.359 43.8834 129.19C43.8336 129.146 43.7789 129.106 43.7241 129.076Z" fill="#8DDFF8"/>
<path d="M49.4749 121.737C48.1126 122.907 46.7602 124.23 45.4625 125.663C45.1244 126.035 45.1543 126.615 45.5272 126.952C45.7012 127.11 45.9199 127.185 46.1387 127.185C46.3873 127.185 46.6359 127.086 46.8149 126.882C48.0629 125.504 49.3605 124.235 50.6632 123.115C51.046 122.788 51.0858 122.213 50.7577 121.831C50.4345 121.45 49.8577 121.41 49.4749 121.737Z" fill="#8DDFF8"/>
<path d="M65.683 90.2121V90.2369C65.7228 90.9953 65.7725 91.7587 65.8173 92.4973C65.9963 95.3971 66.1653 98.1383 66.0858 100.979C65.9714 102.867 65.6234 104.493 65.0466 105.807L65.0268 105.846C63.739 108.637 59.9902 115.483 53.0792 118.764C52.6218 118.982 52.4279 119.523 52.6466 119.979C52.8007 120.306 53.1289 120.499 53.472 120.499C53.6062 120.499 53.7355 120.47 53.8647 120.41C57.355 118.754 60.4675 116.122 63.1275 112.583C64.5047 110.749 65.7029 108.741 66.6874 106.61L66.7172 106.545C67.3834 105.029 67.7862 103.185 67.9105 101.068V101.038C67.99 98.1086 67.811 95.1939 67.637 92.3783C67.5923 91.6447 67.5426 90.8912 67.5028 90.1427C67.3238 84.1993 67.5276 77.2942 70.2473 70.8947C69.5413 70.974 68.8452 71.0682 68.1591 71.1822C65.688 77.6164 65.509 84.3728 65.683 90.2121Z" fill="#8DDFF8"/>
<path d="M137.087 94.4742C137.132 94.9451 137.53 95.2971 137.997 95.2971C138.027 95.2971 138.057 95.2971 138.092 95.2921C138.594 95.2426 138.962 94.7964 138.912 94.2958C138.872 93.8943 138.833 93.4233 138.793 92.8731C138.45 88.5605 137.774 80.1287 132.976 70.8393C132.265 70.7699 131.549 70.7203 130.818 70.6906C135.934 80.0642 136.625 88.6845 136.968 93.0218C137.008 93.5721 137.048 94.0529 137.087 94.4742Z" fill="#8DDFF8"/>
<path d="M111.849 154.519C111.56 154.757 111.337 154.955 111.172 155.094C110.795 155.426 110.755 156.011 111.088 156.388C111.267 156.591 111.521 156.7 111.774 156.7C111.988 156.7 112.202 156.626 112.376 156.477C112.51 156.358 112.729 156.18 113.002 155.957C114.588 154.658 117.895 151.951 121.703 147.5C126.426 141.973 130.25 135.702 133.064 128.857C138.618 115.349 139.015 102.991 138.926 98.3513C138.916 97.8556 138.508 97.345 138.011 97.345C138.006 97.345 138.001 97.345 137.991 97.345C137.484 97.345 137.086 97.8804 137.096 98.386C137.181 102.912 136.793 114.918 131.369 128.108C127.108 138.498 120.535 147.406 111.849 154.519Z" fill="#8DDFF8"/>
<path d="M106.696 158.639C105.567 159.531 104.563 160.314 103.628 161.023C101.624 162.55 99.8196 163.854 98.1042 165.004C96.1055 166.347 94.2112 167.502 92.3268 168.523C91.8843 168.766 91.7203 169.316 91.9589 169.757C92.123 170.06 92.4362 170.233 92.7644 170.233C92.9135 170.233 93.0627 170.198 93.2019 170.124C95.141 169.073 97.08 167.893 99.1285 166.515C100.869 165.346 102.708 164.022 104.737 162.471C105.681 161.752 106.691 160.964 107.829 160.066C108.227 159.754 108.292 159.179 107.979 158.787C107.665 158.391 107.089 158.326 106.696 158.639Z" fill="#8DDFF8"/>
<path d="M49.7357 136.211C49.4272 136.087 49.0889 136.146 48.8401 136.335C49.2381 136.846 49.6461 137.356 50.0591 137.862C50.1188 137.709 50.1785 137.55 50.2431 137.396C50.4322 136.93 50.2033 136.399 49.7357 136.211Z" fill="#8DDFF8"/>
<path d="M75.3313 88.848C75.4556 90.6771 75.6893 92.4864 75.913 94.2412C76.0672 95.4259 76.2263 96.6503 76.3456 97.8697L76.3506 97.8945C76.8279 101.627 75.8733 105.766 74.854 109.687C73.5911 114.55 65.1637 121.128 59.0084 125.931C55.18 128.92 52.1571 131.28 51.1975 132.841C50.934 133.273 51.0682 133.833 51.4958 134.095C51.645 134.185 51.8091 134.229 51.9731 134.229C52.2814 134.229 52.5797 134.076 52.7537 133.793C53.5443 132.509 56.7462 130.011 60.1371 127.364C66.8492 122.124 75.207 115.606 76.624 110.143C77.688 106.054 78.6824 101.726 78.1653 97.6764C78.041 96.4372 77.8819 95.2029 77.7278 94.0082C77.5041 92.2783 77.2753 90.4838 77.156 88.7043L77.1511 88.6596C76.9571 87.0139 77.0466 84.5106 77.2405 82.8897C77.6333 79.3603 78.7371 75.1221 81.3971 71.2011C80.7358 71.0871 80.0646 70.9929 79.3934 70.9136C76.8875 74.904 75.8186 79.1323 75.4208 82.6865C75.2219 84.3471 75.1126 86.9792 75.3313 88.848Z" fill="#8DDFF8"/>
<path d="M125.222 85.0642C125.306 85.4954 125.689 85.7978 126.117 85.7978C126.177 85.7978 126.236 85.7929 126.296 85.778C126.793 85.6789 127.111 85.198 127.012 84.7073C126.987 84.5834 126.952 84.3702 126.912 84.0976C126.674 82.5559 126.177 79.3537 124.755 75.75C124.103 74.0944 123.338 72.5726 122.462 71.1896C121.811 71.2986 121.165 71.4275 120.523 71.5712C122.766 74.8974 124.297 79.1753 125.103 84.3702C125.152 84.6825 125.187 84.9006 125.222 85.0642Z" fill="#8DDFF8"/>
<path d="M123.812 120.78C123.931 120.83 124.051 120.854 124.175 120.854C124.528 120.854 124.866 120.646 125.015 120.304C125.065 120.185 125.184 119.908 125.801 117.325C127.501 110.157 128.312 102.875 128.207 95.6729C128.167 93.0011 128.013 90.8696 127.75 89.3428C127.665 88.8471 127.188 88.515 126.691 88.5993C126.193 88.6836 125.86 89.1545 125.945 89.6551C126.193 91.0877 126.338 93.1201 126.377 95.6977C126.477 102.747 125.686 109.885 124.021 116.904C123.484 119.159 123.35 119.546 123.335 119.59C123.136 120.051 123.35 120.582 123.812 120.78Z" fill="#8DDFF8"/>
<path d="M119.469 131.614C119.578 131.659 119.697 131.679 119.807 131.679C120.17 131.679 120.513 131.461 120.657 131.109C121.253 129.622 123.362 124.922 123.744 124.124C123.963 123.668 123.769 123.128 123.312 122.91C122.854 122.692 122.312 122.885 122.094 123.341C121.706 124.154 119.568 128.928 118.956 130.435C118.772 130.896 119.001 131.426 119.469 131.614Z" fill="#8DDFF8"/>
<path d="M92.5377 159.366L92.5725 159.346C93.8801 158.592 105.684 151.529 117.964 135.79C118.273 135.393 118.203 134.818 117.805 134.511C117.407 134.204 116.831 134.273 116.522 134.67C104.505 150.066 93.0299 156.971 91.6726 157.754C91.4837 157.854 91.25 157.978 90.9865 158.121C88.5602 159.43 83.1457 162.345 77.0054 162.756C77.7512 163.296 78.497 163.822 79.2477 164.342C84.861 163.49 89.5943 160.942 91.8566 159.722C92.1251 159.584 92.3538 159.465 92.5377 159.366Z" fill="#8DDFF8"/>
<path d="M59.7704 140.653C59.9643 140.187 59.7455 139.656 59.2782 139.463C58.8108 139.27 58.2788 139.488 58.0849 139.954C57.5131 141.322 57.0706 143.33 57.0259 145.64C57.6424 146.274 58.2689 146.904 58.9053 147.528C58.8953 147.389 58.8854 147.251 58.8755 147.117C58.7362 144.737 59.0694 142.323 59.7704 140.653Z" fill="#8DDFF8"/>
<path d="M67.6149 130.313C64.4627 132.678 61.9717 134.546 60.8033 136.024C60.4901 136.42 60.5597 136.99 60.9574 137.302C61.1265 137.431 61.3254 137.496 61.5193 137.496C61.7878 137.496 62.0562 137.377 62.2402 137.149C63.2594 135.855 65.7852 133.961 68.7137 131.77C74.6502 127.319 82.7843 121.222 85.7575 114.525C86.5779 112.676 87.1297 110.708 87.5175 109.196C87.97 107.437 88.2733 105.429 88.4175 103.223C88.6362 99.8772 88.0446 96.5907 87.4778 93.4083C87.3684 92.8085 87.259 92.1839 87.1546 91.5742C87.0701 91.0785 86.5977 90.7414 86.1005 90.8257C85.6034 90.91 85.2702 91.3809 85.3498 91.8766C85.4542 92.4962 85.5685 93.1208 85.6779 93.7255C86.2298 96.7989 86.7966 99.9763 86.5928 103.099C86.4536 105.191 86.1702 107.09 85.7475 108.74C85.3548 110.272 84.8476 112.071 84.0869 113.787C81.3076 120.047 73.3923 125.981 67.6149 130.313Z" fill="#8DDFF8"/>
<path d="M85.1562 79.4928C84.659 81.1682 84.4601 83.042 84.5496 85.223C84.5844 86.1351 84.664 87.0918 84.7883 88.0634C84.8529 88.5641 85.3103 88.916 85.8075 88.8565C86.3097 88.7921 86.6627 88.341 86.603 87.8403C86.4887 86.9183 86.4141 86.0162 86.3793 85.1536C86.2997 83.1758 86.4737 81.4954 86.9113 80.0132C87.3587 78.5014 88.0648 77.0589 89.0094 75.7304C89.4619 75.0959 89.964 74.5159 90.5159 73.9855C89.9193 73.7179 89.3177 73.465 88.7061 73.2271C88.2835 73.6832 87.8858 74.164 87.5179 74.6795C86.4588 76.1666 85.6633 77.7876 85.1562 79.4928Z" fill="#8DDFF8"/>
<path d="M114.579 81.4009C115.096 82.6599 115.633 83.9587 116.006 85.2574C116.548 87.1262 116.771 89.0545 116.911 90.5267C117.09 92.445 117.184 94.3188 117.189 96.0884C117.199 99.1618 116.826 102.002 116.433 105.006C116.354 105.591 116.279 106.186 116.2 106.786C115.041 115.941 108.19 129.271 102.517 135.982C102.194 136.369 102.238 136.944 102.626 137.266C102.795 137.41 103.009 137.479 103.213 137.479C103.471 137.479 103.73 137.37 103.914 137.157C106.917 133.608 110.144 128.438 112.764 122.975C115.588 117.091 117.453 111.425 118.009 107.014C118.084 106.414 118.164 105.824 118.238 105.239C118.641 102.171 119.024 99.2708 119.009 96.0785C119.004 94.2543 118.904 92.331 118.72 90.3582C118.576 88.8066 118.338 86.7643 117.751 84.7518C117.348 83.3589 116.791 82.0106 116.254 80.7118C116.09 80.3153 115.926 79.9187 115.767 79.5222C115.031 77.6732 113.793 75.9234 112.386 74.4065C111.814 74.6841 111.253 74.9716 110.696 75.274C112.113 76.7363 113.366 78.4415 114.067 80.2013C114.246 80.5978 114.415 80.9993 114.579 81.4009Z" fill="#8DDFF8"/>
<path d="M99.2725 140.138C97.9003 141.615 94.2011 144.366 89.1148 147.697C84.7445 150.558 80.7719 152.907 79.7676 153.324C77.928 153.988 75.7652 154.578 73.672 153.913C71.9517 153.373 70.3955 152.183 69.4011 150.657C67.9194 148.188 67.641 145.482 68.6404 143.226C69.3265 141.868 70.3656 140.653 71.8224 139.513C73.7714 138.076 75.6359 136.881 77.6098 135.622C77.9976 135.374 78.3953 135.121 78.7931 134.864C79.7875 134.224 80.757 133.515 81.6619 132.767C81.821 132.633 81.9801 132.499 82.1392 132.37C82.5668 132.018 82.9645 131.681 83.3822 131.349C83.775 131.037 83.8446 130.462 83.5264 130.07C83.2131 129.679 82.6364 129.609 82.2436 129.927C81.811 130.274 81.3785 130.63 80.9658 130.972C80.8067 131.101 80.6526 131.235 80.4935 131.364C79.6383 132.068 78.7334 132.732 77.7987 133.332C77.4009 133.59 77.0082 133.843 76.6154 134.09C74.6117 135.369 72.7223 136.579 70.7186 138.061L70.6988 138.076C69.0133 139.394 67.8001 140.822 66.9947 142.433L66.9797 142.463C65.7268 145.273 66.04 148.609 67.8449 151.603L67.8598 151.628C69.0829 153.512 71.002 154.979 73.1251 155.648C73.9802 155.921 74.8205 156.03 75.6458 156.03C77.3562 156.03 78.977 155.549 80.4189 155.029L80.4537 155.014C82.9049 154.013 97.2589 144.996 100.62 141.377C100.963 141.01 100.943 140.43 100.57 140.088C100.197 139.746 99.6156 139.766 99.2725 140.138Z" fill="#8DDFF8"/>
<path d="M105.505 86.4169C106.47 91.0517 106.738 96.0037 106.321 101.546C106.281 102.046 106.659 102.483 107.166 102.522C107.668 102.562 108.106 102.185 108.145 101.679C108.573 95.9641 108.295 90.8485 107.295 86.0451C106.629 82.8429 105.202 81.0633 103.825 80.0769C103.352 80.4883 102.895 80.9146 102.443 81.3509C103.954 82.2778 105.003 84.0128 105.505 86.4169Z" fill="#8DDFF8"/>
<path d="M96.9941 79.4789C95.3136 80.4851 94.3888 82.4233 94.5231 84.6688L94.528 84.7135C94.6523 85.8536 94.7866 86.9986 94.9208 88.109C95.7611 95.2719 96.5566 102.038 95.3534 109.156C94.7567 112.517 93.6629 115.566 92.0073 118.485C90.6798 120.83 86.4188 126.283 85.8072 126.764C85.3995 127.061 85.315 127.631 85.6133 128.038C85.7923 128.28 86.0708 128.409 86.3492 128.409C86.5381 128.409 86.7271 128.35 86.8911 128.231C87.8656 127.512 92.3205 121.643 93.5983 119.383C95.3633 116.28 96.5268 113.043 97.1582 109.469C98.4061 102.088 97.6007 95.1925 96.7406 87.8958C96.6113 86.7954 96.477 85.6602 96.3527 84.535C96.313 83.7766 96.3925 81.9722 97.9338 81.0453C98.5553 80.6933 99.5795 80.4951 100.683 80.6834C100.012 80.0688 99.321 79.4739 98.605 78.9088C97.9935 79.0278 97.4515 79.2211 97.019 79.469L96.9941 79.4789Z" fill="#8DDFF8"/>
<path d="M93.4482 132.083C88.5657 137.228 83.5391 140.515 76.9761 144.589C76.5485 144.857 76.4143 145.417 76.6828 145.844C76.8568 146.121 77.1551 146.275 77.4584 146.275C77.6225 146.275 77.7915 146.23 77.9407 146.136C84.623 141.987 89.7441 138.636 94.7757 133.332C97.9478 129.991 102.631 122.863 103.78 120.33C105.227 117.143 107.414 110.123 107.688 105.935C107.723 105.434 107.34 104.998 106.838 104.968C106.331 104.934 105.898 105.315 105.868 105.816C105.605 109.796 103.506 116.518 102.119 119.576C101.016 122.005 96.4065 128.96 93.4482 132.083Z" fill="#8DDFF8"/>
<path d="M161.661 123.528C161.791 123.042 161.502 122.541 161.015 122.412C160.528 122.284 160.026 122.571 159.896 123.052C159.722 123.686 159.553 124.336 159.389 124.955C158.614 127.9 157.883 130.676 156.724 133.357C156.625 133.59 156.63 133.838 156.714 134.056C157.972 132.346 159.141 130.631 160.2 128.916C160.538 127.746 160.846 126.576 161.154 125.421C161.323 124.797 161.492 124.157 161.661 123.528Z" fill="#8DDFF8"/>
<path d="M162.461 103.005C162.267 107.788 162.063 112.731 161.163 117.593C161.074 118.089 161.397 118.565 161.894 118.654C161.949 118.664 162.008 118.669 162.063 118.669C162.496 118.669 162.878 118.362 162.963 117.926C163.888 112.934 164.092 107.927 164.29 103.069C164.35 101.225 164.29 98.2116 164.136 94.7565C163.525 93.1653 162.829 91.6336 162.048 90.1664C162.381 95.3861 162.545 100.388 162.461 103.005Z" fill="#8DDFF8"/>
<path d="M95.3018 9.56023C95.1223 10.0712 94.9678 10.592 94.8381 11.1327C95.0775 10.84 95.237 10.4382 95.3018 9.97691C95.3068 9.91738 95.3068 9.76857 95.3018 9.56023Z" fill="#8DDFF8"/>
<path d="M95.9973 14.664C95.8779 14.5152 95.6589 14.4904 95.5097 14.6144C95.1365 14.917 94.7733 15.2295 94.425 15.547C94.4549 15.8198 94.4997 16.0976 94.5494 16.3754C94.9922 15.9488 95.455 15.542 95.9425 15.1502C96.0918 15.0261 96.1167 14.8129 95.9973 14.664Z" fill="#8DDFF8"/>
<path d="M95.9867 10.0744C96.0165 9.86122 95.9867 9.19203 95.922 8.05192C95.6933 8.5377 95.4845 9.04332 95.3005 9.5638C95.3055 9.772 95.3055 9.9207 95.3005 9.98019C95.2359 10.4412 95.0768 10.8377 94.8382 11.1352C94.7536 11.4772 94.679 11.8242 94.6194 12.1761C94.7984 12.0869 94.9625 11.9779 95.1116 11.849C95.574 11.4425 95.8823 10.813 95.9867 10.0744Z" fill="#8DDFF8"/>
<path d="M143.668 13.9151C143.603 14.9065 143.513 15.8929 143.409 16.8397C143.643 15.8384 143.738 14.8569 143.668 13.9151Z" fill="#8DDFF8"/>
<path d="M138.008 24.3824C137.824 24.3278 137.63 24.427 137.576 24.6104C137.153 25.9636 136.059 27.8473 135.115 29.3294C135.83 28.6305 136.522 27.9167 137.183 27.193C137.63 26.3552 138.013 25.5274 138.237 24.8136C138.297 24.6352 138.192 24.4369 138.008 24.3824Z" fill="#8DDFF8"/>
<path d="M138.683 22.3795C138.727 22.3994 138.777 22.4093 138.827 22.4093C138.956 22.4093 139.08 22.3349 139.14 22.211C140.403 19.4946 140.686 13.9824 140.462 12.4755C140.433 12.2871 140.259 12.1582 140.07 12.183C139.881 12.2127 139.751 12.3862 139.776 12.5746C140 14.0716 139.672 19.4202 138.509 21.9185C138.434 22.097 138.509 22.3002 138.683 22.3795Z" fill="#8DDFF8"/>
<path d="M139.923 9.77023C139.893 9.95859 140.022 10.137 140.211 10.1668C140.231 10.1717 140.246 10.1717 140.266 10.1717C140.435 10.1717 140.579 10.0478 140.609 9.87928C140.773 8.8284 140.738 7.2025 140.495 5.34859C140.226 5.0016 139.943 4.66452 139.645 4.34727C140.007 6.49861 140.117 8.53098 139.923 9.77023Z" fill="#8DDFF8"/>
<path d="M97.2659 10.0069C97.251 10.1953 97.3902 10.3638 97.5792 10.3787C97.5891 10.3787 97.5991 10.3787 97.609 10.3787C97.788 10.3787 97.9371 10.2448 97.9521 10.0614C97.962 9.95733 97.9521 9.69957 97.9222 9.07499C97.8775 8.11333 97.8079 6.54692 97.8178 5.02016C97.5792 5.31263 97.3455 5.61996 97.1267 5.93225C97.1416 7.16159 97.1914 8.32648 97.2262 9.10473C97.256 9.53103 97.2709 9.93255 97.2659 10.0069Z" fill="#8DDFF8"/>
<path d="M94.3707 14.8258C95.5043 14.0773 96.9909 12.8331 97.5478 11.693C97.6323 11.5195 97.5577 11.3162 97.3887 11.232C97.2147 11.1477 97.0108 11.2221 96.9263 11.3906C96.4888 12.2878 95.3502 13.2842 94.3856 13.9781C94.3707 14.2557 94.3608 14.5432 94.3707 14.8258Z" fill="#8DDFF8"/>
<path d="M118.274 16.7645C118.314 16.7793 118.359 16.7893 118.403 16.7893C118.542 16.7893 118.672 16.705 118.726 16.5711C119.204 15.3666 119.492 13.9836 119.577 12.4568C119.651 11.1581 119.592 9.75528 119.388 8.05008C119.383 7.99059 119.373 7.92615 119.368 7.86667C119.283 7.15782 119.199 6.42418 118.9 5.73516C118.826 5.56167 118.622 5.4774 118.443 5.55671C118.269 5.63106 118.184 5.8343 118.264 6.01275C118.523 6.60759 118.602 7.29166 118.677 7.95094C118.682 8.01538 118.692 8.07486 118.697 8.1393C118.895 9.80485 118.955 11.168 118.881 12.4271C118.796 13.8795 118.528 15.1931 118.08 16.3283C118.006 16.4968 118.095 16.6951 118.274 16.7645Z" fill="#8DDFF8"/>
<path d="M110.437 25.2946C109.796 25.7209 109.135 26.1621 108.563 26.7123C107.514 27.7236 107.32 28.8141 108.036 29.6964C108.364 30.1029 108.836 30.3061 109.403 30.3061C110.01 30.3061 110.731 30.0732 111.496 29.6072C111.66 29.5081 111.71 29.2949 111.611 29.1313C111.511 28.9678 111.297 28.9182 111.133 29.0173C110.701 29.28 109.229 30.0781 108.568 29.2602C107.966 28.5167 108.493 27.7285 109.04 27.2031C109.567 26.6975 110.204 26.2761 110.815 25.8647C111.263 25.5673 111.73 25.255 112.158 24.9129C113.147 24.1198 114.29 23.1631 115.295 22.0825C115.777 21.562 117.035 19.718 117.398 19.0984C117.428 19.0488 117.502 18.9249 117.592 18.7811C117.826 18.3994 118.019 18.0723 118.079 17.9682C118.169 17.7996 118.109 17.5915 117.94 17.5022C117.771 17.413 117.562 17.4725 117.473 17.641C117.418 17.7402 117.169 18.1516 117 18.4242C116.911 18.5729 116.836 18.6969 116.801 18.7464C116.443 19.3462 115.225 21.1407 114.788 21.6116C113.813 22.6575 112.694 23.5944 111.725 24.3726C111.327 24.7047 110.875 25.0022 110.437 25.2946Z" fill="#8DDFF8"/>
<path d="M112.423 28.3029C112.259 28.407 112.214 28.6201 112.313 28.7788C112.378 28.8829 112.492 28.9374 112.607 28.9374C112.671 28.9374 112.736 28.9225 112.791 28.8829C115.147 27.4007 117.221 25.4824 118.956 23.1873C120.393 21.2788 121.551 19.1374 122.208 17.1546C122.267 16.9712 122.168 16.7779 121.989 16.7184C121.81 16.6589 121.611 16.7581 121.551 16.9365C120.413 20.3767 117.415 25.1651 112.423 28.3029Z" fill="#8DDFF8"/>
<path d="M121.978 4.65942C122.605 6.86032 122.684 8.74398 122.609 11.2473C122.565 12.7492 122.341 14.2611 121.978 15.4954C121.923 15.6788 122.028 15.8721 122.212 15.9217C122.247 15.9316 122.276 15.9366 122.311 15.9366C122.46 15.9366 122.6 15.8374 122.644 15.6887C123.022 14.3999 123.256 12.8285 123.306 11.2671C123.38 8.75885 123.296 6.74631 122.649 4.47105C122.406 3.62341 121.948 2.91456 121.307 2.38911C121.103 2.52295 120.904 2.66175 120.71 2.8055C121.327 3.25163 121.754 3.87126 121.978 4.65942Z" fill="#8DDFF8"/>
<path d="M115.699 2.24642C115.058 2.76194 114.645 3.57985 114.595 4.43245C114.55 5.2107 114.68 5.98399 114.804 6.73745C114.829 6.89112 114.854 7.04974 114.879 7.20341C114.908 7.38186 114.933 7.56031 114.963 7.73877C115.078 8.45753 115.197 9.20604 115.261 9.93471C115.346 10.8617 115.336 11.7787 115.237 12.666C115.137 13.5533 114.943 14.4208 114.66 15.2387C114.595 15.4172 114.695 15.6154 114.874 15.6799C114.913 15.6947 114.948 15.6997 114.988 15.6997C115.132 15.6997 115.266 15.6105 115.316 15.4667C115.614 14.5992 115.818 13.6872 115.928 12.7453C116.032 11.8134 116.042 10.8468 115.953 9.87523C115.883 9.11681 115.764 8.36335 115.644 7.62971C115.614 7.45126 115.59 7.27281 115.56 7.09436C115.535 6.93573 115.51 6.78207 115.48 6.62344C115.361 5.90964 115.237 5.17104 115.276 4.47211C115.316 3.81283 115.629 3.17833 116.122 2.78673C116.191 2.7322 116.261 2.68263 116.33 2.64298C116.48 2.55871 116.539 2.38521 116.485 2.23155C116.36 2.15223 116.236 2.07788 116.112 2.00352C116.067 2.00848 116.027 2.02335 115.987 2.04814C115.893 2.09771 115.793 2.16711 115.699 2.24642Z" fill="#8DDFF8"/>
<path d="M113.29 32.8188C113.896 32.4966 114.906 31.758 115.711 31.1582C116.029 30.9252 116.303 30.722 116.502 30.5832C119.008 28.8334 120.793 27.2075 123.592 23.1873C123.736 22.9841 127.097 18.0916 127.097 12.3266C127.097 12.1382 126.943 11.9796 126.749 11.9796C126.56 11.9796 126.401 12.1333 126.401 12.3266C126.401 14.5027 125.904 16.8077 124.919 19.1871C124.049 21.2987 123.124 22.652 123.02 22.7957C120.28 26.7316 118.54 28.3178 116.099 30.023C115.89 30.1668 115.617 30.37 115.294 30.608C114.548 31.1582 113.524 31.9117 112.957 32.214C110.396 33.5673 108.005 33.6367 106.389 32.4123C105.608 31.8175 104.559 30.7765 104.46 28.5855C104.365 26.5383 105.827 25.5122 107.115 24.61C107.333 24.4563 107.542 24.3126 107.736 24.1639C107.801 24.1143 107.89 24.0499 108 23.9706C109.397 22.9445 113.658 19.8215 114.702 16.9217C114.767 16.7433 114.672 16.545 114.493 16.4805C114.314 16.4161 114.115 16.5103 114.051 16.6887C113.643 17.8288 112.599 19.1771 110.958 20.689C109.616 21.9283 108.248 22.9296 107.592 23.4104C107.478 23.4947 107.383 23.5641 107.319 23.6137C107.135 23.7524 106.931 23.8962 106.717 24.0449C106.051 24.5109 105.3 25.0363 104.718 25.7501C104.027 26.5928 103.719 27.5346 103.769 28.6153C103.798 29.2795 103.908 29.8793 104.092 30.4295C105.424 31.6539 106.821 32.8188 108.243 33.9093C108.537 33.9539 108.835 33.9787 109.143 33.9787C110.431 33.9688 111.843 33.5871 113.29 32.8188Z" fill="#8DDFF8"/>
<path d="M124.24 1.28527C125.041 2.20727 126.99 5.64742 126.408 10.4309C126.383 10.6193 126.522 10.7928 126.711 10.8176C126.726 10.8176 126.741 10.8225 126.751 10.8225C126.925 10.8225 127.074 10.6936 127.094 10.5201C127.641 6.0192 126 2.2618 124.762 0.839139C124.732 0.80444 124.698 0.779655 124.658 0.759827C124.499 0.814354 124.34 0.868881 124.18 0.928364C124.136 1.04238 124.151 1.18117 124.24 1.28527Z" fill="#8DDFF8"/>
<path d="M110.868 6.48839C110.897 6.65197 111.047 6.76598 111.206 6.76598C111.226 6.76598 111.25 6.76598 111.27 6.76103C111.459 6.72633 111.579 6.54292 111.544 6.35455C111.36 5.38794 111.35 3.86614 111.767 2.80535L111.772 2.79048C112.076 1.91804 112.468 1.28355 113.095 0.644097C112.846 0.564785 112.598 0.495387 112.344 0.430946C111.792 1.05553 111.409 1.71481 111.116 2.55254C110.654 3.76205 110.654 5.39785 110.868 6.48839Z" fill="#8DDFF8"/>
<path d="M106.483 20.9232C108.626 19.4609 110.192 17.5822 111.136 15.3318C111.957 13.3787 112.255 11.2472 111.997 9.17021C111.957 8.82818 111.897 8.48119 111.832 8.13916C111.798 7.95079 111.614 7.82686 111.425 7.86652C111.236 7.90122 111.112 8.08463 111.151 8.27299C111.216 8.60511 111.266 8.93723 111.305 9.25944C111.842 13.6166 109.893 17.7656 106.085 20.3631C103.554 22.0881 101.943 23.5851 101.004 25.0722C100.695 25.563 100.457 26.0587 100.288 26.5643C100.467 26.7675 100.646 26.9658 100.825 27.1691C101.362 25.1169 103.151 23.1935 106.483 20.9232Z" fill="#8DDFF8"/>
<path d="M116.924 34.7143L116.939 34.7044C117.093 34.6102 117.152 34.4169 117.073 34.2533C116.988 34.0848 116.78 34.0154 116.606 34.0996C116.591 34.1095 116.581 34.1145 116.551 34.1343C116.108 34.4169 114.507 35.3835 112.499 36.0775C112.225 36.1716 111.962 36.251 111.698 36.3303C111.912 36.4592 112.181 36.6227 112.489 36.8061C112.568 36.7814 112.643 36.7566 112.722 36.7318C114.806 36.013 116.466 35.0068 116.924 34.7143Z" fill="#8DDFF8"/>
<path d="M117.923 33.1668C117.764 33.2709 117.719 33.484 117.823 33.6426C117.888 33.7418 118.002 33.8013 118.112 33.8013C118.176 33.8013 118.241 33.7814 118.301 33.7467C121.294 31.8036 123.814 29.4589 125.793 26.7822C127.464 24.5168 128.767 21.9937 129.656 19.2773C131.417 13.9138 131.113 9.35832 130.899 7.65312C130.875 7.46475 130.701 7.33091 130.512 7.35074C130.323 7.37552 130.188 7.54902 130.208 7.73738C130.546 10.434 131.531 24.3334 117.923 33.1668Z" fill="#8DDFF8"/>
<path d="M130.307 6.2248C130.501 6.2248 130.655 6.11575 130.655 5.92738C130.665 4.13295 129.705 1.51566 128.89 0.00377655C128.631 0.00873354 128.368 0.0236045 128.114 0.0434325C128.865 1.32234 129.974 4.09825 129.969 5.92243C129.959 6.11079 130.113 6.2248 130.307 6.2248Z" fill="#8DDFF8"/>
<path d="M107.844 1.88C107.894 1.9048 107.944 1.91472 107.994 1.91472C108.123 1.91472 108.248 1.84527 108.307 1.72126C108.611 1.10121 108.929 0.530764 109.258 0.00992083C109.103 0.00496041 108.944 0 108.79 0C108.675 0 108.561 0 108.447 0.00496041C108.183 0.446437 107.929 0.912716 107.685 1.41868C107.596 1.58733 107.67 1.79567 107.844 1.88Z" fill="#8DDFF8"/>
<path d="M100.676 21.2495C100.755 21.2495 100.835 21.2247 100.899 21.1652C101.571 20.5952 102.187 20.0846 102.729 19.6335C105.488 17.3483 106.876 16.1983 107.701 13.6802C108.203 12.1435 108.084 9.93268 107.969 7.79126C107.88 6.10588 107.79 4.51469 108.004 3.35971C108.039 3.17134 107.915 2.99289 107.726 2.95819C107.537 2.92349 107.358 3.04742 107.323 3.23578C107.094 4.47008 107.184 6.10093 107.278 7.83092C107.393 9.9079 107.507 12.0543 107.045 13.467C106.279 15.7968 105.031 16.8328 102.287 19.1031C101.745 19.5542 101.128 20.0648 100.452 20.6398C100.308 20.7637 100.288 20.9818 100.412 21.1256C100.482 21.2098 100.581 21.2495 100.676 21.2495Z" fill="#8DDFF8"/>
<path d="M99.651 21.6812C99.5167 21.5423 99.2978 21.5373 99.1634 21.6713C98.646 22.1623 98.1833 22.7328 97.7803 23.3528C97.9196 23.5562 98.0639 23.7596 98.2131 23.958C98.6211 23.2933 99.0987 22.6881 99.6411 22.1723C99.7804 22.0383 99.7853 21.8201 99.651 21.6812Z" fill="#8DDFF8"/>
<path d="M126.081 32.0901C126.191 31.9364 126.156 31.7183 125.997 31.6093C125.843 31.5002 125.624 31.5349 125.515 31.6936C124.018 33.8052 119.707 37.3247 116.307 38.9903C116.56 39.129 116.814 39.2629 117.057 39.3918C118.42 38.6829 119.941 37.6965 121.482 36.5068C123.516 34.9354 125.236 33.2847 126.081 32.0901Z" fill="#8DDFF8"/>
<path d="M131.466 24.285C131.292 24.2008 131.088 24.2751 131.004 24.4486C129.845 26.8825 128.493 28.7662 126.753 30.3772C126.614 30.5061 126.604 30.7242 126.733 30.863C126.802 30.9373 126.892 30.972 126.986 30.972C127.071 30.972 127.156 30.9423 127.22 30.8778C129.005 29.2272 130.447 27.2196 131.625 24.7411C131.71 24.5725 131.635 24.3693 131.466 24.285Z" fill="#8DDFF8"/>
<path d="M132 23.0355C132.049 23.0603 132.104 23.0702 132.154 23.0702C132.278 23.0702 132.402 23.0008 132.462 22.8818C134.123 19.5953 134.988 15.7735 135.023 11.5253C135.057 7.22266 134.207 3.96096 133.944 3.06374C133.889 2.88034 133.7 2.77624 133.516 2.83077C133.332 2.88529 133.228 3.07366 133.282 3.25707C133.596 4.32778 136.206 13.9543 131.846 22.5695C131.761 22.743 131.831 22.9462 132 23.0355Z" fill="#8DDFF8"/>
<path d="M132.934 2.07871C132.959 2.07871 132.989 2.07375 133.013 2.06879C133.197 2.02414 133.317 1.84061 133.272 1.65211C133.173 1.23047 133.053 0.81876 132.924 0.426888C132.66 0.362402 132.396 0.302877 132.123 0.253273C132.307 0.749315 132.466 1.2652 132.595 1.80588C132.635 1.97454 132.775 2.07871 132.934 2.07871Z" fill="#8DDFF8"/>
<path d="M103.331 8.53435C103.569 11.7068 103.728 13.7987 100.686 15.9649C100.532 16.0739 100.492 16.2921 100.606 16.4457C100.676 16.5399 100.78 16.5895 100.89 16.5895C100.959 16.5895 101.029 16.5696 101.088 16.525C102.635 15.4246 103.53 14.2399 103.903 12.7974C104.246 11.4887 104.141 10.0958 104.017 8.47983C103.878 6.63582 103.719 4.54893 104.176 1.98616C104.251 1.56978 104.38 1.0939 104.564 0.578377C104.285 0.657689 104.017 0.746915 103.748 0.841098C103.639 1.19304 103.554 1.53508 103.5 1.86224C103.027 4.51423 103.187 6.6507 103.331 8.53435Z" fill="#8DDFF8"/>
<path d="M99.2578 16.8637C99.218 16.8984 99.0142 17.0372 98.8352 17.1611C98.2137 17.5924 97.279 18.2418 96.8862 18.6829C96.7569 18.8267 96.7718 19.0448 96.911 19.1687C96.9757 19.2282 97.0602 19.2579 97.1447 19.2579C97.2392 19.2579 97.3336 19.2183 97.4033 19.1439C97.7413 18.7672 98.7158 18.093 99.2379 17.7312C99.5362 17.523 99.6655 17.4338 99.7301 17.3743C99.8693 17.2454 99.8793 17.0273 99.75 16.8835C99.6158 16.7447 99.397 16.7348 99.2578 16.8637Z" fill="#8DDFF8"/>
<path d="M96.2002 20.3737C96.3197 20.2252 96.2948 20.0073 96.1455 19.8885C96.0211 19.7895 95.8568 19.7895 95.7324 19.8736C95.8369 20.0964 95.9464 20.3143 96.0659 20.5371C96.0907 20.5074 96.1106 20.4826 96.1306 20.4529L96.2002 20.3737Z" fill="#8DDFF8"/>
<path d="M132.819 29.9304C132.63 29.8957 132.451 30.0147 132.416 30.203C132.327 30.5351 130.984 32.3296 128.996 34.5156C129.93 33.8266 130.855 33.1029 131.765 32.3445C132.476 31.4522 133.033 30.664 133.097 30.3369C133.132 30.1485 133.008 29.9651 132.819 29.9304Z" fill="#8DDFF8"/>
<path d="M135.613 24.3026C135.205 25.3386 134.743 26.335 134.245 27.2619C133.952 27.8072 133.644 28.3376 133.321 28.8482C133.216 29.0068 133.266 29.2249 133.43 29.324C133.49 29.3587 133.549 29.3785 133.614 29.3785C133.728 29.3785 133.843 29.324 133.907 29.2199C134.24 28.6945 134.559 28.1492 134.857 27.5891C135.369 26.6373 135.841 25.6162 136.259 24.5554C136.652 23.5541 137.015 22.4883 137.328 21.3829C137.383 21.1995 137.273 21.0062 137.089 20.9566C136.905 20.9021 136.711 21.0111 136.662 21.1946C136.353 22.2801 136 23.3261 135.613 24.3026Z" fill="#8DDFF8"/>
<path d="M137.536 19.9277C137.561 19.9326 137.581 19.9326 137.606 19.9326C137.765 19.9326 137.909 19.8186 137.944 19.6551C138.029 19.2486 138.58 16.0612 138.421 14.708C138.401 14.5196 138.227 14.3808 138.039 14.4056C137.85 14.4254 137.71 14.5989 137.735 14.7873C137.869 15.9571 137.382 18.9611 137.268 19.5163C137.228 19.7096 137.347 19.888 137.536 19.9277Z" fill="#8DDFF8"/>
<path d="M137.049 4.13564C137.084 4.31905 137.114 4.49254 137.143 4.67595C137.173 4.8544 137.203 5.04277 137.238 5.23609C137.561 7.63032 137.85 10.1881 137.79 12.7658C137.785 12.9541 137.934 13.1078 138.128 13.1078C138.133 13.1078 138.133 13.1078 138.138 13.1078C138.327 13.1078 138.481 12.974 138.486 12.7856C138.551 10.1584 138.257 7.55597 137.929 5.12704L137.924 5.10721C137.889 4.9238 137.859 4.75031 137.83 4.5669C137.8 4.38349 137.77 4.20008 137.73 4.0018C137.631 3.45653 137.516 2.93109 137.402 2.42052C137.129 2.23215 136.85 2.05866 136.562 1.89012C136.741 2.60889 136.9 3.35243 137.049 4.13564Z" fill="#8DDFF8"/>
<path d="M99.3782 7.60802C99.413 8.41105 99.4528 9.23887 99.4528 10.0469C99.4528 10.8449 99.2787 11.4596 98.9009 11.995C98.5578 12.456 98.1103 12.8575 97.4391 13.2838C97.28 13.3879 97.2303 13.601 97.3347 13.7596C97.3994 13.8637 97.5137 13.9183 97.6281 13.9183C97.6927 13.9183 97.7573 13.8984 97.817 13.8637C98.5628 13.3879 99.0749 12.9368 99.4677 12.4014L99.4726 12.3965C99.9301 11.7521 100.154 10.9837 100.154 10.0469C100.154 9.21904 100.119 8.38626 100.079 7.57827C100.02 6.20023 99.9549 4.77757 100.074 3.36979C100.099 3.17151 100.124 2.98314 100.149 2.78982C99.8853 2.9881 99.6268 3.20125 99.3782 3.41936C99.2589 4.83706 99.3185 6.24484 99.3782 7.60802Z" fill="#8DDFF8"/>
<path d="M99.5452 15.0089C99.7142 14.9197 99.7789 14.7115 99.6943 14.543C99.6049 14.3744 99.396 14.31 99.227 14.3943C98.1878 14.9346 96.9449 15.8219 95.8113 16.8331C95.5328 17.0859 95.2146 17.3784 94.8865 17.7154C94.9611 17.9583 95.0456 18.2062 95.1351 18.454C96.567 16.9521 98.2674 15.6682 99.5452 15.0089Z" fill="#8DDFF8"/>
<path d="M100.706 14.0694C100.8 14.0694 100.895 14.0298 100.964 13.9554C101.457 13.4002 101.79 12.8649 101.974 12.3146C102.158 11.7991 102.153 11.2687 102.148 10.7581C102.148 10.6788 102.148 10.5995 102.148 10.5152C102.163 9.61803 102.113 8.7109 102.068 7.83352C101.984 6.18284 101.894 4.47763 102.207 2.84182C102.242 2.65346 102.118 2.47501 101.934 2.44031C101.745 2.40561 101.566 2.52953 101.531 2.71294C101.203 4.43302 101.258 6.18284 101.342 7.87317C101.387 8.74065 101.382 9.64282 101.382 10.5152V10.5202C101.382 10.6045 101.422 10.6887 101.422 10.7681C101.427 11.239 101.447 11.6851 101.302 12.0916L101.317 12.0965C101.163 12.5625 100.885 13.0086 100.447 13.4994C100.318 13.6431 100.333 13.8612 100.477 13.9851C100.542 14.0397 100.626 14.0694 100.706 14.0694Z" fill="#8DDFF8"/>
<path d="M134.656 0.996272C134.671 0.996272 134.686 0.996272 134.696 0.991303C134.597 0.95155 134.498 0.911798 134.398 0.877014C134.468 0.956519 134.562 0.996272 134.656 0.996272Z" fill="#8DDFF8"/>
<path d="M134.903 20.8797C134.495 22.0644 133.819 23.8093 133.292 25.0287C133.217 25.2022 133.297 25.4054 133.476 25.4798C133.521 25.4996 133.565 25.5095 133.61 25.5095C133.744 25.5095 133.874 25.4302 133.928 25.3013C134.46 24.0621 135.141 22.2974 135.559 21.0978L135.564 21.0829C136.628 17.5288 136.737 13.5235 136.643 10.7823C136.538 7.67923 136.111 4.50179 135.499 2.28106C135.45 2.09765 135.261 1.9886 135.072 2.03817C134.888 2.08774 134.778 2.2761 134.828 2.46447C135.942 6.49946 136.698 14.8817 134.903 20.8797Z" fill="#8DDFF8"/>
<path d="M124.914 36.5723C124.929 36.5574 124.964 36.5227 125.028 36.4632C126.967 34.6341 131.626 30.0638 132.988 27.1044C133.068 26.9309 132.993 26.7277 132.819 26.6484C132.645 26.5691 132.441 26.6434 132.362 26.8169C131.049 29.6672 126.465 34.1632 124.556 35.9626C124.491 36.0221 124.452 36.0617 124.437 36.0766C123.507 36.9391 120.832 38.8823 118.615 40.1463C118.764 40.2107 118.908 40.2702 119.037 40.3247C119.718 40.062 120.668 39.5861 121.667 39.0458C123.069 38.0891 124.317 37.1374 124.914 36.5822V36.5723Z" fill="#8DDFF8"/>
<path d="M96.9807 22.1371C97.0402 22.2312 97.0948 22.3253 97.1543 22.4145C97.1494 22.3253 97.1097 22.2411 97.0402 22.1767C97.0254 22.1668 97.0055 22.152 96.9807 22.1371Z" fill="#8DDFF8"/>
<path d="M99.1656 19.3556C98.6481 19.8021 98.1356 20.3031 97.6431 20.8437C97.5137 20.9876 97.5237 21.2059 97.668 21.3299C97.7326 21.3894 97.8172 21.4192 97.9018 21.4192C97.9963 21.4192 98.0909 21.3795 98.1605 21.3051C98.6332 20.7842 99.1258 20.3031 99.6183 19.8765C99.7626 19.7525 99.7775 19.5342 99.6531 19.3903C99.5288 19.2465 99.3098 19.2316 99.1656 19.3556Z" fill="#8DDFF8"/>
<path d="M105.301 7.41481V7.42473C105.315 7.71223 105.335 7.99974 105.35 8.28229C105.42 9.38274 105.485 10.4188 105.455 11.4944C105.41 12.2082 105.281 12.8278 105.062 13.3235L105.057 13.3384C104.57 14.3943 103.148 16.9868 100.532 18.231C100.358 18.3152 100.289 18.5185 100.368 18.692C100.428 18.8159 100.552 18.8903 100.682 18.8903C100.731 18.8903 100.781 18.8803 100.831 18.8556C102.153 18.226 103.332 17.2297 104.341 15.8913C104.863 15.1973 105.315 14.4339 105.688 13.6259L105.698 13.6011C105.952 13.0261 106.101 12.3272 106.151 11.5291V11.5192C106.181 10.4088 106.111 9.30343 106.046 8.23767C106.031 7.96008 106.012 7.67258 105.997 7.39003C105.927 5.13955 106.007 2.52226 107.036 0.0982895C106.767 0.128031 106.504 0.16273 106.245 0.207343C105.306 2.64123 105.236 5.19904 105.301 7.41481Z" fill="#8DDFF8"/>
<path d="M132.357 9.02693C132.377 9.20539 132.526 9.33922 132.7 9.33922C132.71 9.33922 132.725 9.33922 132.735 9.33922C132.924 9.3194 133.063 9.15086 133.043 8.96249C133.028 8.80883 133.013 8.63037 132.998 8.42218C132.869 6.78637 132.611 3.59407 130.796 0.0746054C130.527 0.0498204 130.254 0.0299924 129.98 0.0151215C131.92 3.56433 132.178 6.83099 132.312 8.47671C132.327 8.68986 132.342 8.86831 132.357 9.02693Z" fill="#8DDFF8"/>
<path d="M122.795 31.778C122.685 31.8672 122.601 31.9416 122.541 31.9961C122.397 32.12 122.382 32.3431 122.511 32.4868C122.581 32.5662 122.675 32.6058 122.77 32.6058C122.849 32.6058 122.934 32.5761 122.999 32.5215C123.048 32.4769 123.133 32.4075 123.237 32.3233C123.839 31.8325 125.092 30.8064 126.534 29.1161C128.324 27.0242 129.77 24.6449 130.839 22.0524C132.943 16.9368 133.092 12.2524 133.062 10.4976C133.057 10.3093 132.903 10.1159 132.714 10.1159H132.709C132.52 10.1159 132.366 10.3192 132.371 10.5075C132.401 12.2227 132.256 16.7682 130.203 21.7698C128.572 25.7057 126.086 29.0814 122.795 31.778Z" fill="#8DDFF8"/>
<path d="M120.84 33.3418C120.412 33.6789 120.035 33.9763 119.677 34.244C118.916 34.824 118.235 35.3147 117.583 35.7509C116.828 36.2615 116.107 36.6977 115.396 37.0844C115.227 37.1736 115.167 37.3867 115.257 37.5503C115.321 37.6643 115.44 37.7288 115.56 37.7288C115.614 37.7288 115.674 37.7139 115.724 37.6891C116.46 37.2925 117.191 36.8415 117.971 36.321C118.632 35.8798 119.329 35.3742 120.099 34.7893C120.457 34.5166 120.84 34.2192 121.273 33.8772C121.422 33.7582 121.447 33.5401 121.327 33.3914C121.208 33.2476 120.989 33.2229 120.84 33.3418Z" fill="#8DDFF8"/>
<path d="M99.2583 24.8446C99.1389 24.8001 99.0145 24.8199 98.9199 24.8941C99.0692 25.0872 99.2235 25.2803 99.3828 25.4734C99.4076 25.414 99.4276 25.3546 99.4524 25.2952C99.5221 25.117 99.4375 24.914 99.2583 24.8446Z" fill="#8DDFF8"/>
<path d="M108.958 6.89929C109.003 7.59327 109.093 8.27733 109.177 8.94157C109.237 9.39265 109.297 9.85365 109.341 10.3147V10.3246C109.525 11.7373 109.162 13.3087 108.774 14.7908C108.297 16.6348 105.105 19.1232 102.773 20.9425C101.322 22.0726 100.178 22.9699 99.815 23.5597C99.7156 23.7233 99.7653 23.9365 99.9294 24.0356C99.9841 24.0703 100.049 24.0852 100.108 24.0852C100.223 24.0852 100.337 24.0257 100.402 23.9216C100.7 23.4358 101.913 22.489 103.201 21.4877C105.747 19.5049 108.909 17.0314 109.446 14.9643C109.848 13.4177 110.226 11.777 110.027 10.2403C109.983 9.76939 109.918 9.30343 109.863 8.85234C109.779 8.19802 109.689 7.51891 109.645 6.84476V6.82493C109.57 6.20035 109.605 5.25356 109.679 4.6389C109.828 3.30051 110.246 1.69444 111.255 0.207343C111.007 0.16273 110.753 0.128031 110.495 0.0982895C109.545 1.61017 109.142 3.21128 108.988 4.55958C108.919 5.18912 108.874 6.19044 108.958 6.89929Z" fill="#8DDFF8"/>
<path d="M127.857 5.46233C127.892 5.62591 128.036 5.73992 128.195 5.73992C128.22 5.73992 128.24 5.73992 128.265 5.73496C128.454 5.69531 128.573 5.51686 128.538 5.32849C128.528 5.28388 128.518 5.19961 128.498 5.09551C128.409 4.51059 128.22 3.29612 127.683 1.93295C127.434 1.30341 127.146 0.728401 126.813 0.207916C126.564 0.252529 126.321 0.297142 126.077 0.351669C126.927 1.61075 127.509 3.23168 127.812 5.19961C127.832 5.31858 127.847 5.40285 127.857 5.46233Z" fill="#8DDFF8"/>
<path d="M127.327 18.9955C127.371 19.0153 127.416 19.0252 127.461 19.0252C127.595 19.0252 127.725 18.9459 127.779 18.817C127.799 18.7724 127.844 18.6683 128.078 17.6868C128.724 14.9704 129.027 12.2094 128.987 9.48301C128.972 8.47178 128.913 7.66379 128.813 7.08383C128.779 6.89546 128.6 6.77153 128.411 6.80128C128.222 6.83598 128.097 7.01443 128.127 7.20279C128.222 7.74806 128.276 8.5164 128.291 9.49292C128.331 12.1647 128.028 14.8663 127.396 17.5282C127.192 18.3808 127.143 18.5295 127.138 18.5444C127.073 18.7179 127.153 18.9211 127.327 18.9955Z" fill="#8DDFF8"/>
<path d="M125.679 23.0992C125.724 23.1141 125.764 23.124 125.809 23.124C125.948 23.124 126.077 23.0398 126.132 22.9059C126.361 22.3458 127.156 20.5613 127.3 20.2589C127.385 20.0854 127.31 19.8822 127.136 19.7979C126.962 19.7136 126.758 19.788 126.674 19.9615C126.525 20.2688 125.714 22.0781 125.485 22.6482C125.416 22.8266 125.5 23.0299 125.679 23.0992Z" fill="#8DDFF8"/>
<path d="M115.478 33.6134L115.493 33.6035C115.99 33.316 120.46 30.6392 125.114 24.6809C125.233 24.5322 125.203 24.3141 125.054 24.1951C124.905 24.0762 124.686 24.1059 124.567 24.2546C120.013 30.089 115.667 32.7013 115.15 33.0037C115.076 33.0434 114.991 33.088 114.892 33.1425C113.972 33.6382 111.918 34.7436 109.592 34.8973C109.875 35.1005 110.158 35.3038 110.442 35.4971C112.57 35.1749 114.36 34.2083 115.22 33.7473C115.324 33.6977 115.409 33.6531 115.478 33.6134Z" fill="#8DDFF8"/>
<path d="M103.063 26.5241C103.137 26.3456 103.053 26.1473 102.879 26.073C102.7 25.9986 102.501 26.0829 102.426 26.2564C102.208 26.7769 102.044 27.5353 102.024 28.4077C102.257 28.6457 102.496 28.8836 102.735 29.1215C102.73 29.067 102.725 29.0174 102.725 28.9679C102.67 28.0706 102.799 27.1586 103.063 26.5241Z" fill="#8DDFF8"/>
<path d="M106.036 22.6083C104.843 23.5056 103.898 24.2094 103.456 24.7745C103.336 24.9233 103.361 25.1414 103.515 25.2603C103.58 25.3099 103.655 25.3347 103.729 25.3347C103.834 25.3347 103.933 25.2901 104.003 25.2008C104.39 24.7101 105.345 23.9913 106.454 23.1635C108.706 21.4781 111.784 19.1682 112.912 16.6302C113.221 15.9313 113.434 15.1828 113.579 14.6127C113.753 13.9485 113.867 13.1851 113.922 12.3474C114.006 11.0784 113.782 9.83416 113.564 8.62961C113.524 8.40159 113.479 8.16365 113.439 7.93563C113.41 7.74726 113.231 7.61838 113.042 7.65308C112.853 7.68282 112.728 7.86128 112.758 8.04964C112.798 8.28262 112.843 8.52056 112.883 8.74858C113.091 9.91347 113.305 11.118 113.231 12.3027C113.181 13.0959 113.072 13.8146 112.907 14.4392C112.758 15.0192 112.564 15.7032 112.276 16.3526C111.222 18.7171 108.224 20.9676 106.036 22.6083Z" fill="#8DDFF8"/>
<path d="M112.683 3.35466C112.494 3.98916 112.42 4.69801 112.455 5.52582C112.469 5.87281 112.499 6.23467 112.544 6.60149C112.569 6.78986 112.743 6.9237 112.932 6.89891C113.121 6.87413 113.255 6.70063 113.23 6.51227C113.185 6.16528 113.156 5.82324 113.146 5.49608C113.116 4.74758 113.18 4.10812 113.35 3.54798C113.519 2.97297 113.787 2.4277 114.145 1.92705C114.314 1.68415 114.508 1.46605 114.717 1.26281C114.493 1.16367 114.264 1.06453 114.031 0.975304C113.872 1.1488 113.722 1.32725 113.583 1.52553C113.176 2.09063 112.872 2.70529 112.683 3.35466Z" fill="#8DDFF8"/>
<path d="M123.828 4.07974C124.022 4.55561 124.226 5.05131 124.37 5.54206C124.574 6.25091 124.659 6.97959 124.713 7.53973C124.783 8.2684 124.818 8.97725 124.818 9.64645C124.823 10.8113 124.678 11.887 124.529 13.0271C124.499 13.2502 124.47 13.4732 124.44 13.7013C124.002 17.1712 121.407 22.2223 119.259 24.7603C119.135 24.9041 119.155 25.1222 119.299 25.2461C119.363 25.3006 119.443 25.3254 119.523 25.3254C119.622 25.3254 119.721 25.2858 119.786 25.2015C120.925 23.8582 122.148 21.9001 123.137 19.8281C124.206 17.5975 124.912 15.4511 125.126 13.7806C125.156 13.5526 125.186 13.3295 125.215 13.1114C125.37 11.9515 125.514 10.851 125.509 9.64149C125.504 8.95247 125.469 8.21883 125.399 7.47528C125.345 6.8854 125.255 6.11211 125.031 5.35369C124.877 4.82825 124.668 4.31768 124.465 3.82198C124.405 3.67327 124.34 3.5196 124.281 3.37089C124.002 2.67196 123.535 2.00772 122.998 1.43271C122.779 1.53681 122.57 1.64586 122.357 1.75987C122.894 2.31505 123.366 2.95946 123.634 3.6237C123.699 3.77241 123.764 3.92608 123.828 4.07974Z" fill="#8DDFF8"/>
<path d="M118.026 26.3333C117.509 26.8935 116.102 27.9344 114.178 29.1985C112.522 30.284 111.015 31.1713 110.638 31.33C109.942 31.5828 109.121 31.8058 108.326 31.553C107.674 31.3498 107.083 30.8987 106.705 30.3187C106.143 29.3819 106.039 28.3558 106.416 27.5032C106.675 26.9876 107.068 26.5266 107.62 26.0954C108.36 25.5501 109.066 25.099 109.812 24.6182C109.961 24.524 110.111 24.4298 110.26 24.3307C110.638 24.0878 111.001 23.8201 111.349 23.5376C111.408 23.488 111.468 23.4384 111.533 23.3889C111.692 23.255 111.846 23.1261 112.005 23.0022C112.154 22.8833 112.179 22.6651 112.06 22.5164C111.94 22.3677 111.721 22.3429 111.572 22.4619C111.408 22.5908 111.244 22.7296 111.09 22.8585C111.03 22.908 110.971 22.9576 110.911 23.0072C110.588 23.2749 110.245 23.5277 109.892 23.7507C109.743 23.8499 109.593 23.944 109.444 24.0382C108.684 24.524 107.968 24.9801 107.212 25.5402L107.202 25.5452C106.566 26.0458 106.103 26.5861 105.8 27.1958L105.795 27.2107C105.318 28.2765 105.437 29.5405 106.123 30.6756L106.128 30.6856C106.59 31.3994 107.316 31.9545 108.122 32.2074C108.445 32.3115 108.763 32.3511 109.076 32.3511C109.723 32.3511 110.339 32.1677 110.886 31.9744L110.901 31.9694C111.831 31.5927 117.27 28.1724 118.543 26.8042C118.672 26.6654 118.662 26.4473 118.523 26.3184C118.374 26.1846 118.155 26.1896 118.026 26.3333Z" fill="#8DDFF8"/>
<path d="M120.389 5.97907C120.752 7.73385 120.856 9.61255 120.697 11.7094C120.682 11.8977 120.826 12.0663 121.015 12.0811C121.204 12.096 121.373 11.9522 121.388 11.7639C121.552 9.59768 121.443 7.65949 121.065 5.84028C120.811 4.62581 120.269 3.95166 119.752 3.57989C119.573 3.73851 119.399 3.89713 119.23 4.06072C119.802 4.40771 120.2 5.06699 120.389 5.97907Z" fill="#8DDFF8"/>
<path d="M117.166 3.34815C116.529 3.72984 116.176 4.46347 116.231 5.31608V5.3359C116.281 5.76716 116.331 6.20338 116.38 6.62472C116.699 9.34115 117.002 11.9039 116.544 14.6005C116.321 15.8745 115.903 17.0295 115.277 18.1349C114.774 19.0222 113.159 21.0892 112.925 21.2726C112.771 21.3866 112.736 21.5998 112.85 21.7535C112.92 21.8476 113.024 21.8923 113.129 21.8923C113.198 21.8923 113.273 21.8724 113.333 21.8229C113.7 21.5502 115.391 19.3295 115.873 18.4719C116.539 17.2971 116.982 16.0678 117.221 14.7145C117.693 11.9188 117.39 9.30646 117.061 6.54045C117.012 6.12407 116.962 5.69281 116.917 5.26651C116.902 4.979 116.932 4.29494 117.519 3.94299C117.753 3.80915 118.14 3.7348 118.558 3.80419C118.304 3.57122 118.041 3.34815 117.772 3.13004C117.539 3.17466 117.335 3.24901 117.171 3.34319L117.166 3.34815Z" fill="#8DDFF8"/>
<path d="M115.819 23.2771C113.97 25.2252 112.065 26.4694 109.579 28.016C109.415 28.1152 109.366 28.3283 109.47 28.4919C109.535 28.596 109.649 28.6555 109.763 28.6555C109.828 28.6555 109.888 28.6406 109.947 28.6009C112.478 27.0296 114.417 25.7606 116.326 23.748C117.53 22.484 119.3 19.7824 119.737 18.8208C120.284 17.6113 121.114 14.9543 121.219 13.3681C121.234 13.1797 121.084 13.0112 120.896 13.0013C120.702 12.9864 120.538 13.1351 120.528 13.3235C120.428 14.8304 119.633 17.3783 119.106 18.5382C118.688 19.4602 116.943 22.0924 115.819 23.2771Z" fill="#8DDFF8"/>
<path d="M141.665 20.0376C141.715 19.8542 141.606 19.6659 141.422 19.6163C141.238 19.5667 141.049 19.6758 140.999 19.8592C140.935 20.1021 140.87 20.345 140.805 20.5829C140.512 21.6982 140.233 22.7491 139.796 23.7653C139.756 23.8545 139.761 23.9487 139.791 24.028C140.268 23.3787 140.711 22.7293 141.113 22.0799C141.243 21.6387 141.357 21.1926 141.476 20.7564C141.536 20.5185 141.601 20.2756 141.665 20.0376Z" fill="#8DDFF8"/>
<path d="M141.968 12.257C141.893 14.0712 141.818 15.94 141.475 17.784C141.441 17.9724 141.565 18.1508 141.754 18.1855C141.774 18.1905 141.799 18.1905 141.818 18.1905C141.982 18.1905 142.127 18.0765 142.156 17.9079C142.509 16.0193 142.584 14.1208 142.659 12.2817C142.684 11.5828 142.659 10.4427 142.599 9.13405C142.37 8.5293 142.102 7.94933 141.808 7.39415C141.938 9.37199 142.002 11.2656 141.968 12.257Z" fill="#8DDFF8"/>
<path d="M39.9524 42.4711C39.7131 43.1556 39.5037 43.86 39.3242 44.5892C39.6433 44.1923 39.8627 43.6566 39.9475 43.0366C39.9624 42.9522 39.9624 42.7538 39.9524 42.4711Z" fill="#8DDFF8"/>
<path d="M40.8868 49.3391C40.7227 49.1408 40.4293 49.1061 40.2305 49.2697C39.7283 49.6761 39.241 50.0925 38.7737 50.5238C38.8135 50.8906 38.8731 51.2673 38.9427 51.6391C39.5394 51.0691 40.1609 50.5188 40.8172 49.9884C41.016 49.8298 41.0459 49.5374 40.8868 49.3391Z" fill="#8DDFF8"/>
<path d="M40.871 43.1625C40.9107 42.875 40.871 41.9728 40.7815 40.4411C40.4732 41.0954 40.1948 41.7745 39.9462 42.4734C39.9561 42.756 39.9561 42.9543 39.9462 43.0336C39.8617 43.6532 39.6429 44.1886 39.3247 44.5851C39.2103 45.0461 39.1159 45.5121 39.0264 45.988C39.265 45.869 39.4888 45.7252 39.6926 45.5468C40.3191 45.0015 40.7367 44.1539 40.871 43.1625Z" fill="#8DDFF8"/>
<path d="M105.053 48.3304C104.963 49.6639 104.848 50.9923 104.704 52.2663C105.023 50.918 105.147 49.5994 105.053 48.3304Z" fill="#8DDFF8"/>
<path d="M97.4404 62.4248C97.1968 62.3504 96.9333 62.4843 96.8587 62.7321C96.2869 64.5563 94.8152 67.0893 93.5474 69.087C94.5119 68.1452 95.4417 67.1884 96.3317 66.2119C96.9333 65.0867 97.4503 63.9714 97.7536 63.0097C97.8232 62.7618 97.689 62.4991 97.4404 62.4248Z" fill="#8DDFF8"/>
<path d="M98.3406 59.7309C98.4053 59.7606 98.4699 59.7755 98.5345 59.7755C98.7085 59.7755 98.8776 59.6764 98.9571 59.5078C100.658 55.8545 101.04 48.4339 100.737 46.4065C100.697 46.1537 100.464 45.9752 100.21 46.0149C99.9565 46.0545 99.7775 46.2875 99.8173 46.5403C100.116 48.5529 99.6781 55.7554 98.1119 59.1162C98.0075 59.3442 98.1069 59.6218 98.3406 59.7309Z" fill="#8DDFF8"/>
<path d="M100.015 42.7528C99.9754 43.0056 100.149 43.2436 100.403 43.2832C100.428 43.2882 100.453 43.2882 100.478 43.2882C100.701 43.2882 100.9 43.1246 100.935 42.8966C101.159 41.4838 101.109 39.2928 100.781 36.7995C100.418 36.3285 100.035 35.8775 99.6323 35.4512C100.13 38.351 100.279 41.0823 100.015 42.7528Z" fill="#8DDFF8"/>
<path d="M42.5956 43.0714C42.5757 43.3242 42.7646 43.5522 43.0182 43.572C43.0331 43.572 43.048 43.572 43.058 43.572C43.2966 43.572 43.5005 43.3886 43.5204 43.1457C43.5303 43.002 43.5204 42.6599 43.4806 41.8172C43.4209 40.5235 43.3314 38.4167 43.3414 36.3546C43.0182 36.7512 42.705 37.1626 42.4116 37.584C42.4315 39.2396 42.5011 40.811 42.5459 41.8569C42.5807 42.4369 42.6055 42.9722 42.5956 43.0714Z" fill="#8DDFF8"/>
<path d="M38.7022 49.5605C40.2335 48.5542 42.2322 46.8787 42.983 45.3421C43.0974 45.1091 42.9979 44.8315 42.7692 44.7224C42.5355 44.6084 42.2571 44.7076 42.1477 44.9356C41.5561 46.1451 40.0297 47.4884 38.727 48.4154C38.6972 48.7971 38.6872 49.1738 38.7022 49.5605Z" fill="#8DDFF8"/>
<path d="M70.8745 52.1702C70.9292 52.1901 70.9889 52.2049 71.0436 52.2049C71.2275 52.2049 71.4065 52.0959 71.4761 51.9125C72.1175 50.2915 72.5053 48.4277 72.6197 46.3706C72.7191 44.6207 72.6396 42.7321 72.3661 40.437C72.3562 40.3528 72.3462 40.2735 72.3363 40.1892C72.2269 39.2374 72.1125 38.251 71.7098 37.3191C71.6054 37.0812 71.332 36.9771 71.0983 37.0762C70.8596 37.1803 70.7552 37.4529 70.8546 37.6859C71.2027 38.4889 71.3071 39.406 71.4115 40.2933C71.4214 40.3776 71.4314 40.4618 71.4413 40.5461C71.7098 42.7867 71.7894 44.6207 71.6899 46.316C71.5806 48.274 71.2176 50.0387 70.611 51.5655C70.5166 51.8034 70.6359 52.0761 70.8745 52.1702Z" fill="#8DDFF8"/>
<path d="M60.3192 63.6487C59.4591 64.2237 58.5641 64.8136 57.7985 65.5522C56.3814 66.9153 56.1229 68.3777 57.0875 69.5723C57.53 70.1225 58.1664 70.3952 58.9321 70.3952C59.7524 70.3952 60.717 70.0829 61.7511 69.4533C61.9699 69.3195 62.0395 69.032 61.9053 68.8139C61.771 68.5958 61.4827 68.5264 61.2639 68.6602C60.6772 69.0171 58.6984 70.0878 57.8134 68.9923C57.0029 67.991 57.709 66.9352 58.4498 66.2263C59.1558 65.5472 60.011 64.9772 60.8413 64.4269C61.4479 64.0254 62.0743 63.609 62.6461 63.1431C63.9786 62.0724 65.5199 60.7835 66.8673 59.3311C67.5136 58.6322 69.2091 56.1487 69.7013 55.316C69.7411 55.2466 69.8405 55.083 69.9598 54.8897C70.2731 54.3741 70.5366 53.9379 70.6161 53.7991C70.7404 53.5761 70.6559 53.2935 70.4272 53.1696C70.2035 53.0457 69.9201 53.1299 69.7958 53.358C69.7262 53.4868 69.3881 54.047 69.1643 54.4138C69.045 54.6121 68.9406 54.7806 68.9008 54.85C68.4235 55.658 66.7778 58.0721 66.1861 58.7066C64.8785 60.1143 63.367 61.3784 62.0644 62.4243C61.5175 62.8556 60.9109 63.262 60.3192 63.6487Z" fill="#8DDFF8"/>
<path d="M63.0001 67.6999C62.7813 67.8387 62.7167 68.1262 62.8559 68.3394C62.9454 68.4782 63.0945 68.5575 63.2487 68.5575C63.3332 68.5575 63.4177 68.5327 63.4973 68.4881C66.6694 66.4954 69.4586 63.9128 71.7954 60.8196C73.7295 58.2519 75.2857 55.3669 76.1757 52.7001C76.2553 52.4572 76.126 52.1945 75.8824 52.1151C75.6387 52.0358 75.3752 52.1647 75.2957 52.4076C73.7544 57.0325 69.7172 63.4766 63.0001 67.6999Z" fill="#8DDFF8"/>
<path d="M75.8661 35.8748C76.7113 38.8391 76.8158 41.3721 76.7163 44.7429C76.6566 46.7653 76.3534 48.7977 75.8661 50.4583C75.7915 50.7061 75.9357 50.9639 76.1843 51.0333C76.2291 51.0482 76.2738 51.0531 76.3136 51.0531C76.5174 51.0531 76.7014 50.9193 76.7611 50.721C77.2732 48.986 77.5864 46.8694 77.6461 44.7676C77.7455 41.3919 77.6312 38.6805 76.7611 35.617C76.4379 34.472 75.8214 33.5252 74.9562 32.8163C74.6828 32.9948 74.4143 33.1831 74.1558 33.3765C74.9861 33.9812 75.5628 34.814 75.8661 35.8748Z" fill="#8DDFF8"/>
<path d="M67.4083 32.6218C66.5431 33.3158 65.9863 34.4162 65.9216 35.5613C65.862 36.6072 66.036 37.6532 66.205 38.6644C66.2399 38.8726 66.2747 39.0857 66.3095 39.289C66.3492 39.5319 66.384 39.7698 66.4238 40.0127C66.5779 40.9843 66.742 41.9856 66.8265 42.972C66.9359 44.2212 66.926 45.4555 66.7917 46.6501C66.6575 47.8447 66.394 49.0096 66.0161 50.115C65.9316 50.3579 66.0609 50.6207 66.3045 50.7049C66.3542 50.7198 66.4039 50.7297 66.4586 50.7297C66.6525 50.7297 66.8315 50.6107 66.9011 50.4174C67.3039 49.2525 67.5823 48.0182 67.7215 46.7542C67.8607 45.5001 67.8756 44.2013 67.7563 42.8927C67.6668 41.8765 67.5027 40.8554 67.3436 39.8689C67.3039 39.631 67.269 39.3881 67.2293 39.1502C67.1945 38.937 67.1597 38.7288 67.1249 38.5157C66.9658 37.554 66.8017 36.5626 66.8514 35.6208C66.9011 34.7285 67.3287 33.8809 67.99 33.3505C68.0795 33.2761 68.1739 33.2117 68.2684 33.1572C68.4673 33.0432 68.5468 32.8102 68.4772 32.602C68.3132 32.4979 68.1441 32.3938 67.9751 32.2946C67.9154 32.3046 67.8607 32.3194 67.806 32.3492C67.6718 32.4235 67.5375 32.5177 67.4083 32.6218Z" fill="#8DDFF8"/>
<path d="M64.1644 73.7813C64.9848 73.35 66.3371 72.3487 67.426 71.5506C67.8536 71.2334 68.2215 70.9657 68.49 70.7773C71.861 68.4227 74.2624 66.2367 78.0361 60.8187C78.23 60.5411 82.7545 53.9582 82.7545 46.1956C82.7545 45.9378 82.5457 45.7296 82.2871 45.7296C82.0286 45.7296 81.8198 45.9378 81.8198 46.1956C81.8198 49.1252 81.1485 52.2282 79.826 55.4255C78.6526 58.2659 77.4047 60.0851 77.2704 60.2834C73.5813 65.5824 71.2395 67.7139 67.958 70.009C67.6796 70.2023 67.3067 70.4799 66.8741 70.7971C65.8698 71.5407 64.4876 72.5569 63.7318 72.9584C60.2863 74.7776 57.0645 74.8767 54.8868 73.2211C53.8377 72.423 52.4256 71.0202 52.2914 68.0708C52.1671 65.3147 54.131 63.9367 55.8662 62.7222C56.1596 62.514 56.438 62.3207 56.7015 62.1224C56.786 62.058 56.9054 61.9687 57.0545 61.8597C58.9389 60.4767 64.6715 56.2781 66.0736 52.372C66.1581 52.1291 66.0338 51.8664 65.7902 51.7772C65.5466 51.6879 65.2831 51.8168 65.1936 52.0597C64.6417 53.5964 63.2396 55.4057 61.0321 57.448C59.2223 59.1185 57.3827 60.4668 56.4977 61.1161C56.3435 61.2301 56.2192 61.3194 56.1297 61.3888C55.8811 61.5771 55.6077 61.7655 55.3243 61.9687C54.4293 62.5933 53.42 63.3071 52.6345 64.2638C51.7047 65.399 51.2871 66.663 51.3517 68.1204C51.3915 69.0176 51.5357 69.8256 51.7892 70.5592C53.5791 72.2049 55.4635 73.7763 57.3777 75.2386C57.7705 75.2981 58.1732 75.3278 58.5908 75.3278C60.3161 75.3328 62.2154 74.8123 64.1644 73.7813Z" fill="#8DDFF8"/>
<path d="M78.8997 31.3274C79.9786 32.5667 82.5989 37.2015 81.8183 43.6406C81.7884 43.8934 81.9674 44.1264 82.226 44.1561C82.2459 44.1561 82.2657 44.1611 82.2807 44.1611C82.5143 44.1611 82.7132 43.9876 82.743 43.7496C83.4789 37.6922 81.2664 32.6361 79.6008 30.7177C79.561 30.6731 79.5113 30.6384 79.4616 30.6087C79.2478 30.683 79.034 30.7574 78.8202 30.8367C78.7605 31.0003 78.7804 31.1886 78.8997 31.3274Z" fill="#8DDFF8"/>
<path d="M60.9028 38.3372C60.9475 38.5602 61.1415 38.7139 61.3602 38.7139C61.39 38.7139 61.4199 38.709 61.4497 38.704C61.7033 38.6544 61.8674 38.4115 61.8176 38.1587C61.569 36.86 61.5541 34.8128 62.116 33.3802L62.1209 33.3604C62.5286 32.1856 63.0556 31.328 63.9058 30.4754C63.5727 30.3713 63.2346 30.2771 62.8965 30.1928C62.1508 31.0306 61.6386 31.9228 61.2459 33.053C60.6194 34.6641 60.6194 36.865 60.9028 38.3372Z" fill="#8DDFF8"/>
<path d="M55.0062 57.7628C57.89 55.7949 59.9981 53.2619 61.2709 50.2331C62.3747 47.6059 62.7774 44.7358 62.4293 41.9401C62.3747 41.484 62.3001 41.0131 62.2106 40.5521C62.1609 40.2993 61.9172 40.1357 61.6637 40.1853C61.4101 40.2349 61.246 40.4778 61.2957 40.7306C61.3803 41.1767 61.4499 41.6228 61.5046 42.0591C62.2305 47.9232 59.6003 53.5097 54.4792 57.0044C51.0734 59.3243 48.9007 61.3418 47.6428 63.3394C47.2301 63.9987 46.9069 64.6629 46.6782 65.347C46.9169 65.6196 47.1605 65.8873 47.4041 66.16C48.1101 63.4138 50.5215 60.8213 55.0062 57.7628Z" fill="#8DDFF8"/>
<path d="M69.0596 76.3332L69.0845 76.3183C69.2933 76.1944 69.3728 75.9267 69.2635 75.7086C69.1491 75.4806 68.8657 75.3864 68.637 75.5053C68.6121 75.5153 68.6022 75.5252 68.5624 75.55C67.9658 75.9267 65.808 77.2353 63.1082 78.1623C62.7453 78.2862 62.3873 78.4002 62.0293 78.4994C62.3127 78.6729 62.6756 78.891 63.0933 79.1438C63.1977 79.1091 63.3021 79.0744 63.4065 79.0397C66.2057 78.078 68.4431 76.7248 69.0596 76.3332Z" fill="#8DDFF8"/>
<path d="M70.4057 74.2464C70.1919 74.3852 70.1272 74.6727 70.2714 74.8908C70.3609 75.0296 70.5101 75.104 70.6642 75.104C70.7537 75.104 70.8382 75.0792 70.9178 75.0296C74.95 72.4123 78.3409 69.2597 81.0009 65.6559C83.2532 62.6074 84.9983 59.2069 86.1966 55.5585C88.5682 48.3362 88.1555 42.2093 87.8721 39.9093C87.8423 39.6565 87.6086 39.4731 87.35 39.5078C87.0965 39.5375 86.9125 39.7705 86.9473 40.0283C87.3948 43.6469 88.7173 62.3546 70.4057 74.2464Z" fill="#8DDFF8"/>
<path d="M87.0755 37.9842C87.334 37.9842 87.5428 37.8405 87.5428 37.5827C87.5578 35.1637 86.2601 31.6442 85.1663 29.6069C84.8133 29.6168 84.4652 29.6366 84.1172 29.6614C85.1265 31.3865 86.623 35.1191 86.6131 37.5728C86.6081 37.8306 86.8169 37.9842 87.0755 37.9842Z" fill="#8DDFF8"/>
<path d="M56.8338 32.1312C56.8985 32.1609 56.9681 32.1758 57.0377 32.1758C57.2117 32.1758 57.3758 32.0816 57.4553 31.9131C57.863 31.0753 58.2906 30.312 58.7331 29.613C58.5243 29.6081 58.3155 29.6031 58.1066 29.6031C57.9525 29.6031 57.7984 29.6031 57.6443 29.6081C57.2913 30.198 56.9482 30.8325 56.62 31.5116C56.5057 31.7396 56.6001 32.0172 56.8338 32.1312Z" fill="#8DDFF8"/>
<path d="M47.1892 58.2037C47.2936 58.2037 47.403 58.169 47.4925 58.0946C48.3974 57.3263 49.2277 56.6422 49.9536 56.0325C53.6676 52.9542 55.5371 51.4077 56.6458 48.0171C57.322 45.95 57.1629 42.9709 57.0038 40.0908C56.8795 37.8205 56.7651 35.6791 57.0535 34.1276C57.0983 33.8748 56.9342 33.6319 56.6806 33.5873C56.4271 33.5427 56.1834 33.7062 56.1387 33.959C55.8304 35.6196 55.9497 37.8156 56.074 40.1454C56.2282 42.9411 56.3823 45.831 55.7608 47.7296C54.7316 50.8673 53.0461 52.2652 49.357 55.3187C48.6261 55.9235 47.7958 56.6125 46.8859 57.3858C46.692 57.5543 46.6671 57.8468 46.8312 58.0401C46.9257 58.1492 47.0549 58.2037 47.1892 58.2037Z" fill="#8DDFF8"/>
<path d="M45.8086 58.79C45.6296 58.6066 45.3363 58.5967 45.1473 58.7751C44.4513 59.4394 43.8298 60.2028 43.2878 61.0355C43.4768 61.3082 43.6707 61.5808 43.8696 61.8534C44.4165 60.9562 45.0579 60.1433 45.7887 59.4493C45.9826 59.2708 45.9876 58.9734 45.8086 58.79Z" fill="#8DDFF8"/>
<path d="M81.3797 72.8015C81.5289 72.5933 81.4792 72.3009 81.2654 72.1522C81.0566 72.0034 80.7632 72.053 80.614 72.2662C78.6004 75.1115 72.7982 79.8454 68.219 82.0909C68.5621 82.2743 68.9001 82.4577 69.2283 82.6263C71.0629 81.6696 73.1114 80.3411 75.1847 78.74C77.9292 76.6283 80.2412 74.4076 81.3797 72.8015Z" fill="#8DDFF8"/>
<path d="M88.6317 62.2937C88.398 62.1846 88.1196 62.2838 88.0102 62.5118C86.449 65.7884 84.6293 68.3214 82.2875 70.4925C82.0986 70.666 82.0886 70.9635 82.2627 71.1469C82.3522 71.246 82.4814 71.2956 82.6057 71.2956C82.7201 71.2956 82.8344 71.2559 82.9239 71.1717C85.3254 68.9509 87.2644 66.2494 88.8555 62.9084C88.9648 62.6803 88.8654 62.4027 88.6317 62.2937Z" fill="#8DDFF8"/>
<path d="M89.3514 60.6116C89.421 60.6463 89.4906 60.6611 89.5602 60.6611C89.7293 60.6611 89.8933 60.5669 89.9778 60.4034C92.2152 55.9768 93.3737 50.8364 93.4234 45.116C93.4731 39.3213 92.3246 34.9343 91.9716 33.7298C91.902 33.4819 91.6434 33.3431 91.3948 33.4125C91.1463 33.4819 91.007 33.7397 91.0766 33.9875C91.4943 35.4251 95.0095 48.3876 89.1475 59.982C89.0282 60.215 89.1227 60.4926 89.3514 60.6116Z" fill="#8DDFF8"/>
<path d="M90.6061 32.4025C90.6409 32.4025 90.6758 32.3976 90.7156 32.3877C90.9643 32.3281 91.1235 32.0801 91.0638 31.8271C90.9295 31.2567 90.7703 30.7061 90.5962 30.1803C90.2429 30.0959 89.8847 30.0166 89.5215 29.9471C89.7703 30.6168 89.9842 31.3112 90.1583 32.0404C90.2031 32.2587 90.3971 32.4025 90.6061 32.4025Z" fill="#8DDFF8"/>
<path d="M50.7597 41.0904C51.0829 45.3584 51.2917 48.1789 47.2048 51.0936C46.996 51.2423 46.9462 51.5348 47.0954 51.743C47.1849 51.8718 47.3291 51.9363 47.4733 51.9363C47.5677 51.9363 47.6622 51.9065 47.7418 51.852C49.82 50.3699 51.0282 48.7787 51.5304 46.8355C51.9878 45.0758 51.8486 43.1971 51.6845 41.0259C51.4956 38.5474 51.2868 35.7319 51.8983 32.2868C51.9977 31.7266 52.1718 31.0822 52.4204 30.3932C52.0475 30.5022 51.6795 30.6212 51.3216 30.7501C51.1774 31.226 51.063 31.687 50.9835 32.1281C50.352 35.6823 50.5708 38.5574 50.7597 41.0904Z" fill="#8DDFF8"/>
<path d="M45.2741 52.3006C45.2194 52.3452 44.946 52.5385 44.7073 52.7021C43.872 53.2821 42.6091 54.1595 42.0821 54.7493C41.9081 54.9427 41.928 55.2351 42.1169 55.4037C42.2064 55.483 42.3158 55.5226 42.4302 55.5226C42.5594 55.5226 42.6837 55.4731 42.7782 55.369C43.2356 54.8584 44.5432 53.9513 45.2443 53.4655C45.642 53.1879 45.821 53.064 45.9055 52.9846C46.0945 52.8112 46.1094 52.5187 45.9354 52.3254C45.7564 52.142 45.463 52.1271 45.2741 52.3006Z" fill="#8DDFF8"/>
<path d="M41.1613 57.025C41.3209 56.8266 41.291 56.534 41.0915 56.3703C40.927 56.2413 40.7026 56.2363 40.5381 56.3504C40.6777 56.648 40.8273 56.9457 40.9868 57.2483C41.0167 57.2086 41.0467 57.1739 41.0766 57.1342L41.1613 57.025Z" fill="#8DDFF8"/>
<path d="M90.4556 69.8904C90.2021 69.8409 89.9634 70.0045 89.9087 70.2573C89.7894 70.7034 87.9796 73.1224 85.3047 76.0619C86.5626 75.135 87.8105 74.1584 89.0336 73.1422C89.9932 71.9426 90.744 70.8769 90.8285 70.4357C90.8733 70.1829 90.7092 69.94 90.4556 69.8904Z" fill="#8DDFF8"/>
<path d="M94.2174 62.312C93.6655 63.7049 93.049 65.0482 92.3778 66.2974C91.985 67.031 91.5673 67.7498 91.1298 68.4339C90.9906 68.652 91.0552 68.9395 91.274 69.0733C91.3536 69.1229 91.4381 69.1477 91.5226 69.1477C91.6767 69.1477 91.8259 69.0733 91.9154 68.9296C92.3629 68.2257 92.7954 67.4871 93.1981 66.7336C93.8843 65.4497 94.5207 64.0767 95.0825 62.649C95.6145 61.3057 96.0968 59.8682 96.5194 58.3811C96.589 58.1332 96.4448 57.8755 96.1962 57.8061C95.9476 57.7367 95.6891 57.8804 95.6195 58.1283C95.2068 59.5906 94.7345 60.9984 94.2174 62.312Z" fill="#8DDFF8"/>
<path d="M96.8028 56.4257C96.8327 56.4306 96.8675 56.4356 96.8973 56.4356C97.1161 56.4356 97.31 56.2819 97.3547 56.0638C97.4691 55.5185 98.2099 51.2258 98.0011 49.4016C97.9712 49.1488 97.7425 48.9654 97.484 48.9951C97.2304 49.0249 97.0464 49.2529 97.0763 49.5107C97.2553 51.082 96.599 55.1319 96.4448 55.8804C96.3901 56.1282 96.5493 56.3761 96.8028 56.4257Z" fill="#8DDFF8"/>
<path d="M96.1477 35.1634C96.1974 35.4113 96.2322 35.6443 96.272 35.8921C96.3118 36.135 96.3515 36.3829 96.4013 36.6456C96.8338 39.8676 97.2266 43.3127 97.1421 46.7826C97.1371 47.0404 97.341 47.2387 97.5945 47.2387C97.5995 47.2387 97.6045 47.2387 97.6045 47.2387C97.858 47.2387 98.0619 47.0553 98.0718 46.8025C98.1564 43.2632 97.7636 39.7635 97.3211 36.4969L97.3161 36.4721C97.2664 36.2242 97.2316 35.9912 97.1918 35.7434C97.152 35.5005 97.1122 35.2477 97.0575 34.98C96.9183 34.2464 96.7741 33.5425 96.615 32.8535C96.2471 32.6007 95.8693 32.3627 95.4814 32.1397C95.7251 33.1013 95.9438 34.1076 96.1377 35.1535L96.1477 35.1634Z" fill="#8DDFF8"/>
<path d="M45.4389 39.8444C45.4886 40.9251 45.5383 42.0404 45.5383 43.1309C45.5383 44.2016 45.3046 45.0344 44.7975 45.7532C44.3401 46.3777 43.7285 46.9131 42.8286 47.4881C42.6098 47.6269 42.5502 47.9144 42.6894 48.1276C42.7789 48.2664 42.928 48.3407 43.0822 48.3407C43.1667 48.3407 43.2562 48.3159 43.3308 48.2664C44.3351 47.622 45.0212 47.0172 45.5532 46.2935L45.5582 46.2885C46.1747 45.4211 46.473 44.385 46.473 43.1309C46.473 42.0206 46.4233 40.8953 46.3736 39.8048C46.2891 37.9509 46.2046 36.0375 46.3637 34.1439C46.3985 33.8812 46.4283 33.6185 46.4631 33.3607C46.1051 33.6284 45.7621 33.9109 45.424 34.2083C45.2748 36.1118 45.3593 38.0103 45.4389 39.8444Z" fill="#8DDFF8"/>
<path d="M45.6685 49.8033C45.8973 49.6843 45.9868 49.4018 45.8674 49.1787C45.7481 48.9507 45.4647 48.8615 45.241 48.9805C43.8438 49.7042 42.1683 50.9038 40.6469 52.2669C40.269 52.604 39.8414 53.0006 39.3989 53.4517C39.5033 53.7788 39.6127 54.1109 39.737 54.4431C41.6612 52.4206 43.9483 50.6956 45.6685 49.8033Z" fill="#8DDFF8"/>
<path d="M47.2245 48.5394C47.3538 48.5394 47.483 48.4849 47.5725 48.3808C48.2388 47.6323 48.6813 46.9086 48.9299 46.17C49.1785 45.476 49.1735 44.7622 49.1635 44.0732C49.1635 43.9641 49.1635 43.8551 49.1635 43.751C49.1834 42.5464 49.1188 41.322 49.0591 40.1373C48.9448 37.9166 48.8254 35.6215 49.2481 33.4156C49.2978 33.1628 49.1287 32.9199 48.8752 32.8704C48.6216 32.8208 48.378 32.9893 48.3283 33.2421C47.8858 35.557 47.9554 37.9116 48.0747 40.1869C48.1343 41.3567 48.1294 42.5662 48.1294 43.741V43.746C48.1294 43.86 48.1791 43.9691 48.1791 44.0831C48.1841 44.7176 48.2139 45.3223 48.02 45.8626L48.0399 45.8725C47.8311 46.5021 47.4582 47.1019 46.8665 47.7612C46.6975 47.9545 46.7124 48.247 46.9063 48.4155C47.0057 48.4998 47.1151 48.5394 47.2245 48.5394Z" fill="#8DDFF8"/>
<path d="M92.9296 30.9462C92.9495 30.9462 92.9645 30.9461 92.9844 30.9412C92.8498 30.8862 92.7152 30.8363 92.5806 30.7863C92.6703 30.8862 92.795 30.9462 92.9296 30.9462Z" fill="#8DDFF8"/>
<path d="M93.2576 57.704C92.7058 59.3002 91.7959 61.6448 91.0949 63.2905C90.9954 63.5285 91.1048 63.8011 91.3385 63.9003C91.3981 63.925 91.4628 63.9399 91.5224 63.9399C91.7014 63.9399 91.8754 63.8358 91.95 63.6574C92.666 61.9918 93.5858 59.6125 94.1427 57.9965L94.1476 57.9767C95.5795 53.1932 95.7287 47.7999 95.6044 44.1169C95.4602 39.9382 94.8835 35.6603 94.0631 32.6712C93.9935 32.4234 93.7399 32.2796 93.4913 32.344C93.2427 32.4134 93.0985 32.6662 93.1632 32.9141C94.6597 38.3519 95.674 49.634 93.2576 57.704Z" fill="#8DDFF8"/>
<path d="M79.8103 78.8272C79.8252 78.8123 79.8799 78.7627 79.9644 78.6834C82.5747 76.2248 88.8443 70.0682 90.6789 66.0827C90.7883 65.8498 90.6839 65.5722 90.4502 65.4681C90.2165 65.359 89.9381 65.4631 89.8337 65.6961C88.0686 69.5328 81.8985 75.5853 79.328 78.0093C79.2435 78.0886 79.1888 78.1431 79.1639 78.1629C77.9159 79.3278 74.3113 81.9402 71.3281 83.6404C71.532 83.7296 71.7209 83.809 71.8999 83.8783C72.8197 83.5214 74.0925 82.8869 75.4399 82.1583C77.3293 80.8744 79.0048 79.5856 79.8103 78.8371V78.8272Z" fill="#8DDFF8"/>
<path d="M42.2122 59.4028C42.2919 59.5272 42.3717 59.6567 42.4515 59.7811C42.4465 59.6616 42.3917 59.5471 42.2969 59.4625C42.272 59.4376 42.2421 59.4177 42.2122 59.4028Z" fill="#8DDFF8"/>
<path d="M45.1515 55.6614C44.4554 56.2612 43.7693 56.9304 43.108 57.664C42.934 57.8524 42.9489 58.1498 43.1428 58.3183C43.2323 58.3976 43.3417 58.4373 43.4561 58.4373C43.5853 58.4373 43.7096 58.3877 43.8041 58.2836C44.4405 57.5797 45.1018 56.9353 45.768 56.3603C45.9619 56.1918 45.9868 55.8993 45.8177 55.706C45.6387 55.5127 45.3454 55.4928 45.1515 55.6614Z" fill="#8DDFF8"/>
<path d="M53.4093 39.5812V39.5911C53.4292 39.9777 53.454 40.3694 53.4789 40.7461C53.5684 42.2233 53.6579 43.6211 53.6181 45.0735C53.5584 46.0352 53.3844 46.868 53.0911 47.5372L53.0811 47.557C52.4248 48.9796 50.5106 52.4694 46.9855 54.1448C46.7518 54.2539 46.6524 54.5315 46.7668 54.7645C46.8463 54.933 47.0154 55.0272 47.1894 55.0272C47.259 55.0272 47.3236 55.0123 47.3883 54.9826C49.1682 54.1399 50.7543 52.7965 52.1116 50.9922C52.8126 50.0553 53.4242 49.0342 53.9264 47.9436L53.9413 47.9089C54.2794 47.1356 54.4832 46.1938 54.5479 45.1181V45.1033C54.5876 43.6112 54.4981 42.1241 54.4086 40.6866C54.3838 40.3148 54.3639 39.9282 54.339 39.5465C54.2495 36.5178 54.349 32.9933 55.7361 29.7316C55.3782 29.7713 55.0202 29.8209 54.6722 29.8754C53.4142 33.1569 53.3198 36.602 53.4093 39.5812Z" fill="#8DDFF8"/>
<path d="M89.8265 41.753C89.8513 41.9909 90.0552 42.1694 90.2888 42.1694C90.3038 42.1694 90.3187 42.1694 90.3336 42.1694C90.5921 42.1446 90.7761 41.9165 90.7512 41.6588C90.7313 41.4555 90.7115 41.2127 90.6916 40.9351C90.5176 38.7342 90.1745 34.4364 87.7233 29.6976C87.3604 29.6629 86.9924 29.6381 86.6245 29.6182C89.2348 34.3968 89.5828 38.7986 89.7618 41.0045C89.7867 41.2969 89.8066 41.5398 89.8265 41.753Z" fill="#8DDFF8"/>
<path d="M76.9532 72.3766C76.8091 72.4956 76.6897 72.5997 76.6102 72.6691C76.4163 72.8376 76.3964 73.135 76.5704 73.3283C76.6649 73.4324 76.7892 73.487 76.9184 73.487C77.0278 73.487 77.1372 73.4473 77.2267 73.3729C77.2963 73.3135 77.4057 73.2242 77.5449 73.1053C78.3553 72.441 80.0408 71.063 81.9849 68.7927C84.3962 65.9722 86.3452 62.7749 87.7821 59.2852C90.6161 52.395 90.815 46.0946 90.7703 43.7301C90.7653 43.4773 90.5565 43.2196 90.3029 43.2196C90.2979 43.2196 90.2979 43.2196 90.293 43.2196C90.0344 43.2196 89.8306 43.4922 89.8356 43.75C89.8803 46.0599 89.6814 52.1818 86.917 58.9084C84.7393 64.2075 81.3832 68.7481 76.9532 72.3766Z" fill="#8DDFF8"/>
<path d="M74.3255 74.4802C73.7488 74.9363 73.2367 75.3328 72.7643 75.6947C71.7401 76.4729 70.8203 77.1372 69.9502 77.7221C68.931 78.4062 67.9664 78.9961 67.0019 79.5165C66.7781 79.6405 66.6936 79.923 66.8129 80.1461C66.8974 80.2997 67.0565 80.389 67.2206 80.389C67.2952 80.389 67.3748 80.3692 67.4444 80.3345C68.4338 79.7991 69.4232 79.1943 70.4673 78.4954C71.3573 77.9006 72.292 77.2264 73.3311 76.4333C73.8134 76.0665 74.3255 75.665 74.9072 75.204C75.1111 75.0453 75.1409 74.7529 74.9818 74.5496C74.8227 74.3563 74.5294 74.3216 74.3255 74.4802Z" fill="#8DDFF8"/>
<path d="M45.2813 63.0433C45.1217 62.9788 44.9522 63.0086 44.8225 63.1078C45.027 63.3658 45.2364 63.6288 45.4459 63.8867C45.4758 63.8074 45.5057 63.728 45.5406 63.6486C45.6354 63.4104 45.5207 63.1376 45.2813 63.0433Z" fill="#8DDFF8"/>
<path d="M58.331 38.8872C58.3956 39.8191 58.5149 40.7411 58.6293 41.6383C58.7089 42.2431 58.7884 42.8677 58.8481 43.4873V43.5022C59.0917 45.4057 58.6044 47.5173 58.0874 49.515C57.441 51.9935 53.1453 55.3494 50.008 57.7981C48.054 59.3199 46.5127 60.5245 46.0254 61.3226C45.8912 61.5407 45.9608 61.8282 46.1796 61.962C46.2541 62.0066 46.3387 62.0314 46.4232 62.0314C46.5823 62.0314 46.7314 61.9521 46.8209 61.8084C47.2237 61.154 48.8545 59.8801 50.5847 58.5318C54.0104 55.86 58.2713 52.5338 58.9923 49.748C59.5342 47.6611 60.0413 45.4552 59.7778 43.3882C59.7132 42.7586 59.6336 42.1291 59.5541 41.5194C59.4397 40.637 59.3204 39.7249 59.2607 38.8129V38.7881C59.1613 37.9454 59.206 36.6714 59.3055 35.8436C59.5044 34.0442 60.0662 31.883 61.4285 29.8804C61.0904 29.8209 60.7523 29.7713 60.4043 29.7316C59.1265 31.769 58.5796 33.9203 58.3807 35.7346C58.2763 36.5872 58.2216 37.9305 58.331 38.8872Z" fill="#8DDFF8"/>
<path d="M83.777 36.9539C83.8218 37.177 84.0157 37.3257 84.2344 37.3257C84.2643 37.3257 84.2941 37.3207 84.3239 37.3158C84.5775 37.2662 84.7416 37.0233 84.6918 36.7705C84.6769 36.706 84.662 36.597 84.6421 36.4582C84.5228 35.675 84.2692 34.0392 83.5433 32.2001C83.2102 31.3574 82.8174 30.5792 82.3749 29.8753C82.0418 29.9298 81.7136 29.9992 81.3855 30.0686C82.529 31.7639 83.3096 33.945 83.7223 36.597C83.7422 36.7606 83.7571 36.8746 83.777 36.9539Z" fill="#8DDFF8"/>
<path d="M83.0613 55.1699C83.1209 55.1947 83.1856 55.2095 83.2452 55.2095C83.4242 55.2095 83.5982 55.1055 83.6728 54.927C83.6977 54.8675 83.7623 54.7238 84.0706 53.4102C84.9407 49.7569 85.3533 46.0391 85.2987 42.366C85.2788 41.0028 85.1992 39.9172 85.065 39.139C85.0202 38.8862 84.7816 38.7176 84.528 38.7622C84.2744 38.8069 84.1054 39.0448 84.1501 39.2976C84.2794 40.0263 84.349 41.0672 84.3689 42.3808C84.4186 45.9747 84.0159 49.6181 83.1657 53.197C82.8922 54.347 82.8226 54.5453 82.8176 54.5651C82.7132 54.7981 82.8226 55.0708 83.0613 55.1699Z" fill="#8DDFF8"/>
<path d="M80.8442 60.6989C80.8989 60.7237 80.9586 60.7336 81.0183 60.7336C81.2022 60.7336 81.3762 60.6246 81.4508 60.4412C81.7541 59.6828 82.8281 57.2836 83.0269 56.8771C83.1363 56.6441 83.0419 56.3665 82.8082 56.2575C82.5745 56.1484 82.2961 56.2426 82.1867 56.4756C81.9878 56.887 80.8989 59.3259 80.5857 60.0942C80.4863 60.3321 80.6056 60.5998 80.8442 60.6989Z" fill="#8DDFF8"/>
<path d="M67.1119 74.8521L67.1318 74.8422C67.798 74.4555 73.819 70.8568 80.0837 62.8314C80.2428 62.6281 80.203 62.3357 80.0041 62.1771C79.8003 62.0184 79.5069 62.0581 79.3478 62.2564C73.2224 70.1082 67.3654 73.6277 66.6743 74.0292C66.5749 74.0788 66.4605 74.1432 66.3263 74.2176C65.0883 74.8868 62.3239 76.3739 59.1965 76.5821C59.5794 76.8547 59.9572 77.1274 60.3401 77.3901C63.2039 76.9539 65.6153 75.6551 66.7738 75.0355C66.8981 74.9661 67.0124 74.9017 67.1119 74.8521Z" fill="#8DDFF8"/>
<path d="M50.3935 65.3029C50.4929 65.0649 50.3785 64.7923 50.1449 64.6932C49.9062 64.594 49.6327 64.708 49.5333 64.941C49.24 65.64 49.0162 66.6611 48.9963 67.8409C49.3096 68.1631 49.6327 68.4853 49.9559 68.8025C49.9509 68.7331 49.946 68.6637 49.941 68.5943C49.8664 67.3898 50.0355 66.1555 50.3935 65.3029Z" fill="#8DDFF8"/>
<path d="M54.3988 60.0326C52.7879 61.2372 51.5201 62.1889 50.9234 62.9474C50.7643 63.1506 50.7991 63.4431 51.003 63.6017C51.0875 63.6661 51.1919 63.7008 51.2913 63.7008C51.4306 63.7008 51.5648 63.6413 51.6593 63.5224C52.1813 62.8631 53.4691 61.8965 54.9606 60.7762C57.9886 58.5059 62.1401 55.3979 63.6516 51.9825C64.0692 51.0407 64.3526 50.0344 64.5515 49.266C64.7802 48.3688 64.9393 47.3427 65.0089 46.2175C65.1183 44.5123 64.82 42.8319 64.5316 41.2109C64.4769 40.9036 64.4173 40.5864 64.3676 40.2741C64.3228 40.0213 64.0842 39.8478 63.8306 39.8924C63.577 39.937 63.408 40.1749 63.4477 40.4277C63.5024 40.745 63.5571 41.0622 63.6118 41.3696C63.8952 42.936 64.1836 44.5569 64.0792 46.1481C64.0096 47.2139 63.8654 48.1805 63.6466 49.0232C63.4478 49.8064 63.1892 50.7234 62.7964 51.5958C61.3794 54.7981 57.3472 57.8218 54.3988 60.0326Z" fill="#8DDFF8"/>
<path d="M63.3435 34.1133C63.09 34.9659 62.9905 35.9226 63.0353 37.033C63.0552 37.4989 63.0949 37.9847 63.1546 38.4804C63.1844 38.7332 63.4181 38.9166 63.6767 38.8819C63.9302 38.8522 64.1142 38.6192 64.0794 38.3614C64.0197 37.8905 63.98 37.4295 63.965 36.9933C63.9253 35.9821 64.0148 35.1245 64.2385 34.3711C64.4672 33.5978 64.8252 32.8641 65.3075 32.19C65.5362 31.8678 65.7947 31.5704 66.0731 31.2977C65.7699 31.1589 65.4616 31.035 65.1484 30.9111C64.9346 31.1441 64.7307 31.387 64.5418 31.6497C64.0098 32.418 63.6021 33.2458 63.3435 34.1133Z" fill="#8DDFF8"/>
<path d="M78.3493 35.0913C78.6128 35.7308 78.8863 36.395 79.0802 37.0593C79.3537 38.011 79.473 38.9975 79.5426 39.746C79.6321 40.7274 79.6818 41.6792 79.6868 42.5814C79.6918 44.1478 79.5028 45.5952 79.299 47.1269C79.2592 47.4243 79.2194 47.7267 79.1796 48.0341C78.588 52.7035 75.0977 59.5045 72.204 62.9249C72.0399 63.1231 72.0648 63.4156 72.2587 63.5792C72.3482 63.6535 72.4526 63.6882 72.557 63.6882C72.6913 63.6882 72.8205 63.6337 72.915 63.5247C74.4464 61.7154 76.0921 59.0782 77.4295 56.2924C78.8714 53.2934 79.821 50.4035 80.1044 48.153C80.1442 47.8457 80.184 47.5483 80.2238 47.2509C80.4276 45.6844 80.6215 44.2073 80.6165 42.5814C80.6116 41.6494 80.5618 40.668 80.4724 39.6617C80.3978 38.8686 80.2735 37.8276 79.9801 36.8015C79.7763 36.0927 79.4929 35.4036 79.2194 34.7394C79.1349 34.5362 79.0504 34.3329 78.9708 34.1346C78.593 33.1928 77.9665 32.3006 77.2456 31.5273C76.9522 31.6661 76.6688 31.8148 76.3854 31.9684C77.1063 32.712 77.7477 33.5844 78.1057 34.4816C78.1803 34.6799 78.2648 34.8832 78.3493 35.0913Z" fill="#8DDFF8"/>
<path d="M70.5436 65.039C69.8425 65.7925 67.9582 67.1953 65.3628 68.8955C63.1354 70.3529 61.1068 71.5525 60.5947 71.7656C59.655 72.1077 58.5562 72.4051 57.4873 72.068C56.6122 71.7904 55.8167 71.1857 55.3096 70.4074C54.5538 69.1483 54.4146 67.7653 54.9217 66.6153C55.2698 65.9213 55.8018 65.3017 56.5426 64.7217C57.537 63.9881 58.4866 63.3784 59.491 62.739C59.6898 62.6101 59.8887 62.4812 60.0975 62.3523C60.6047 62.0251 61.0969 61.6682 61.5593 61.2816C61.6438 61.2122 61.7234 61.1478 61.8029 61.0784C62.0217 60.8999 62.2255 60.7264 62.4393 60.5579C62.6432 60.3993 62.673 60.1068 62.5139 59.9036C62.3548 59.7003 62.0615 59.6706 61.8576 59.8292C61.6339 60.0027 61.4151 60.1861 61.2063 60.3646C61.1267 60.429 61.0472 60.4984 60.9627 60.5678C60.5251 60.9296 60.0627 61.2667 59.5904 61.5741C59.3866 61.7029 59.1877 61.8318 58.9888 61.9607C57.9696 62.615 57.005 63.2297 55.9808 63.9832L55.9708 63.9931C55.1107 64.6672 54.4942 65.3909 54.0815 66.2138L54.0715 66.2336C53.4302 67.6662 53.5942 69.3665 54.514 70.8932L54.524 70.9081C55.1505 71.8697 56.125 72.6182 57.2088 72.9553C57.6414 73.0941 58.074 73.1486 58.4916 73.1486C59.3617 73.1486 60.192 72.9057 60.9279 72.6381L60.9428 72.6331C62.1957 72.1225 69.5144 67.5225 71.2297 65.6784C71.4037 65.4901 71.3938 65.1976 71.2049 65.0241C71.0159 64.8407 70.7176 64.8506 70.5436 65.039Z" fill="#8DDFF8"/>
<path d="M73.7241 37.6485C74.2163 40.013 74.3506 42.5361 74.1418 45.3665C74.1219 45.6243 74.3158 45.8474 74.5693 45.8622C74.8279 45.8821 75.0516 45.6887 75.0665 45.431C75.2853 42.5163 75.1411 39.9089 74.634 37.4552C74.2959 35.8194 73.565 34.9172 72.864 34.4116C72.6253 34.6198 72.3916 34.8379 72.158 35.061C72.9286 35.5368 73.4656 36.4192 73.7241 37.6485Z" fill="#8DDFF8"/>
<path d="M69.3849 34.1082C68.5297 34.6188 68.0574 35.6102 68.122 36.7552V36.78C68.1866 37.36 68.2563 37.9449 68.3209 38.51C68.7485 42.1633 69.1562 45.6134 68.5397 49.2469C68.2364 50.962 67.6795 52.5135 66.8343 54.0056C66.1581 55.2002 63.9854 57.9811 63.6721 58.2289C63.4633 58.3826 63.4186 58.6701 63.5727 58.8783C63.6622 59.0022 63.8064 59.0667 63.9505 59.0667C64.045 59.0667 64.1445 59.0369 64.229 58.9774C64.7262 58.6106 66.9984 55.6166 67.6497 54.4666C68.5496 52.8853 69.1413 51.2297 69.4644 49.4104C70.1008 45.6431 69.6882 42.1286 69.2506 38.4109C69.186 37.8507 69.1164 37.2708 69.0518 36.6958C69.0319 36.3091 69.0717 35.3871 69.8572 34.9162C70.1754 34.7377 70.6975 34.6386 71.2593 34.7328C70.9162 34.4205 70.5632 34.1181 70.2003 33.8257C69.8871 33.8851 69.6136 33.9843 69.3899 34.1082H69.3849Z" fill="#8DDFF8"/>
<path d="M67.5722 60.937C65.0813 63.5593 62.5207 65.2347 59.1696 67.3167C58.9509 67.4505 58.8862 67.738 59.0205 67.9561C59.11 68.0999 59.2591 68.1742 59.4182 68.1742C59.5027 68.1742 59.5873 68.1494 59.6619 68.1048C63.0726 65.9882 65.6829 64.278 68.2484 61.5765C69.8643 59.8713 72.2558 56.2378 72.8425 54.944C73.5783 53.3181 74.697 49.7392 74.8362 47.6027C74.8511 47.3449 74.6572 47.1268 74.4037 47.107C74.1451 47.0872 73.9264 47.2855 73.9065 47.5383C73.7722 49.5706 72.7033 52.9959 71.9923 54.5574C71.4304 55.7966 69.0837 59.3458 67.5722 60.937Z" fill="#8DDFF8"/>
<path d="M102.364 56.5709C102.429 56.323 102.284 56.0702 102.036 56.0008C101.787 55.9364 101.534 56.0801 101.464 56.328C101.375 56.6502 101.29 56.9823 101.206 57.2995C100.808 58.8015 100.435 60.2192 99.8482 61.5873C99.7985 61.7063 99.7985 61.8302 99.8433 61.9442C100.485 61.0718 101.081 60.1944 101.623 59.322C101.797 58.7271 101.956 58.1273 102.11 57.5375C102.19 57.2202 102.275 56.8931 102.364 56.5709Z" fill="#8DDFF8"/>
<path d="M102.767 46.1073C102.668 48.5461 102.563 51.0692 102.106 53.5477C102.061 53.8005 102.225 54.0434 102.479 54.088C102.508 54.093 102.533 54.098 102.563 54.098C102.782 54.098 102.981 53.9393 103.021 53.7163C103.493 51.1733 103.597 48.6155 103.697 46.142C103.727 45.2002 103.697 43.6635 103.617 41.9038C103.309 41.0908 102.951 40.3126 102.553 39.5641C102.732 42.221 102.812 44.7739 102.767 46.1073Z" fill="#8DDFF8"/>
</svg>
